<?xml version="1.0" standalone="no"?>
<!DOCTYPE svg PUBLIC "-//W3C//DTD SVG 20010904//EN"
 "http://www.w3.org/TR/2001/REC-SVG-20010904/DTD/svg10.dtd">
<svg version="1.0" xmlns="http://www.w3.org/2000/svg"
 width="2000.000000pt" height="2000.000000pt" viewBox="0 0 2000.000000 2000.000000"
 preserveAspectRatio="xMidYMid meet">
<metadata>
Created by potrace 1.11, written by Peter Selinger 2001-2013
</metadata>
<g transform="translate(0.000000,2000.000000) scale(0.100000,-0.100000)"
fill="#000000" stroke="none">
<path d="M12780 18303 c-24 -9 -51 -35 -77 -77 -24 -38 -102 -137 -129 -164
-8 -7 -14 -18 -14 -24 0 -6 -19 -29 -42 -52 -24 -23 -66 -71 -95 -106 -28 -36
-61 -75 -72 -87 -12 -12 -21 -24 -21 -27 0 -3 -10 -16 -22 -29 -13 -13 -59
-64 -103 -112 -44 -49 -105 -114 -135 -146 -30 -32 -68 -75 -85 -95 -16 -20
-36 -42 -43 -48 -7 -6 -27 -26 -45 -45 -83 -89 -105 -111 -114 -111 -5 0 -15
-11 -21 -24 -6 -13 -20 -27 -31 -31 -12 -3 -21 -10 -21 -15 0 -5 -18 -28 -40
-51 -22 -24 -40 -47 -40 -51 0 -4 -4 -8 -10 -8 -14 0 -51 -32 -143 -122 -43
-43 -82 -78 -86 -78 -4 0 -14 -11 -21 -25 -7 -14 -17 -25 -21 -25 -13 0 -133
-106 -223 -198 -34 -34 -76 -73 -94 -85 -30 -23 -144 -122 -204 -179 -16 -16
-34 -28 -40 -28 -6 0 -32 -19 -58 -42 -25 -24 -77 -70 -114 -103 -38 -33 -76
-67 -85 -76 -9 -9 -38 -34 -66 -55 -27 -20 -55 -45 -62 -54 -6 -9 -39 -35 -73
-58 -34 -24 -67 -47 -73 -52 -59 -48 -76 -60 -86 -60 -6 0 -11 -4 -11 -8 0 -4
-32 -25 -71 -46 -38 -21 -68 -40 -65 -43 3 -3 29 8 58 24 29 17 69 36 88 43
19 7 42 19 50 26 8 6 38 24 65 40 28 15 61 36 75 46 60 45 238 168 245 168 3
0 -19 -24 -50 -52 -30 -29 -63 -64 -72 -78 -10 -16 0 -10 29 18 24 23 49 42
54 42 6 0 19 9 29 20 10 11 23 20 30 20 7 0 20 9 30 20 11 12 42 32 69 46 28
14 69 40 91 58 22 17 52 37 66 45 15 7 37 23 50 35 30 27 115 86 125 86 4 0
14 7 23 15 33 31 79 65 89 65 5 0 15 7 22 15 7 9 15 13 17 11 3 -2 13 3 23 12
22 20 32 28 85 67 22 17 44 36 48 42 4 7 15 13 23 13 8 0 27 11 42 25 15 14
32 25 37 25 6 0 26 13 45 30 19 16 39 29 44 30 5 0 16 8 25 18 29 31 81 63 92
56 6 -3 13 3 16 15 3 11 15 23 27 27 11 4 27 16 35 26 7 11 23 23 35 29 24 10
59 31 66 40 3 3 34 20 70 38 67 34 122 68 152 94 9 8 25 18 35 21 11 3 29 15
40 26 12 10 37 27 57 37 19 10 75 46 125 81 49 34 97 62 105 62 9 0 16 4 16 9
0 5 17 20 38 32 20 13 46 31 56 41 11 10 23 18 27 18 3 0 41 27 84 60 43 33
81 60 85 60 5 0 32 19 62 43 53 44 118 90 188 138 l38 25 118 -38 c66 -21 128
-40 140 -42 12 -2 42 -14 67 -25 25 -12 53 -21 61 -21 8 0 18 -4 21 -10 3 -5
15 -10 27 -10 19 0 95 -22 143 -41 24 -10 104 -31 125 -34 8 0 25 -6 36 -13
12 -6 24 -9 27 -5 4 3 12 1 19 -5 7 -5 40 -18 73 -27 33 -10 66 -22 73 -27 6
-6 12 -8 12 -4 0 3 25 -5 55 -19 30 -13 55 -22 55 -20 0 6 103 -32 138 -51 15
-8 32 -14 39 -14 10 0 25 -6 133 -58 25 -12 50 -22 56 -22 7 0 14 -7 18 -15 3
-8 10 -15 15 -15 9 0 56 -29 109 -67 30 -22 55 -36 122 -70 30 -15 60 -32 67
-38 30 -25 40 -31 63 -42 24 -11 23 -12 -10 -6 -19 2 -64 13 -100 23 -130 36
-341 81 -352 74 -4 -3 -8 0 -8 6 0 6 -4 9 -9 5 -6 -3 -41 0 -78 6 -37 7 -81
13 -98 13 -16 1 -35 5 -42 9 -6 4 -44 10 -85 12 -40 3 -95 8 -123 10 -110 11
-319 4 -400 -12 -28 -5 -29 -4 -15 12 14 17 13 17 -7 7 -12 -7 -25 -17 -29
-24 -4 -7 -3 -8 4 -4 8 5 10 1 5 -9 -4 -11 -8 -13 -13 -5 -8 12 -119 -43 -133
-67 -4 -7 -14 -13 -21 -13 -8 0 -19 -7 -26 -15 -7 -8 -16 -12 -21 -9 -5 3 -12
-2 -15 -10 -3 -9 -12 -16 -18 -16 -7 0 -23 -12 -37 -26 -13 -14 -62 -51 -109
-82 -47 -30 -101 -68 -120 -84 -19 -15 -40 -28 -46 -28 -7 0 -14 -6 -17 -14
-3 -8 -21 -22 -39 -30 -18 -9 -54 -36 -78 -61 -25 -24 -50 -44 -57 -45 -6 0
-13 -3 -15 -7 -1 -5 -50 -44 -108 -88 -154 -116 -181 -139 -304 -260 -93 -91
-218 -238 -250 -293 -5 -7 24 12 63 44 39 31 71 60 71 65 0 5 6 9 13 9 7 0 24
11 39 25 15 14 42 35 61 48 18 12 53 38 78 57 24 19 51 40 60 45 9 6 32 22 50
36 19 15 63 41 99 59 36 18 75 42 86 52 12 11 31 20 43 21 11 1 21 4 21 7 0 3
18 14 40 24 22 11 40 23 40 28 0 4 6 8 13 8 14 0 37 11 222 100 265 127 363
174 399 192 60 29 257 37 643 27 78 -2 145 0 149 4 4 3 15 2 26 -4 10 -5 22
-7 27 -4 11 6 318 8 391 2 125 -11 205 -20 208 -22 3 -2 -82 -68 -143 -110
-35 -24 -147 -125 -158 -142 -4 -7 -15 -13 -24 -13 -9 0 -26 -8 -37 -18 -12
-10 -64 -37 -116 -61 -52 -23 -107 -49 -122 -57 -14 -8 -32 -14 -38 -14 -15 0
-141 -62 -185 -90 -35 -23 -31 -21 -115 -51 -36 -13 -85 -34 -110 -46 -25 -13
-50 -23 -56 -23 -6 0 -35 -13 -65 -29 -30 -17 -92 -42 -139 -56 -47 -15 -98
-33 -115 -39 -43 -18 -108 -39 -125 -41 -8 -1 -24 -6 -35 -12 -11 -6 -56 -21
-100 -33 -44 -12 -84 -25 -90 -28 -5 -4 -21 -8 -35 -10 -14 -1 -32 -5 -40 -9
-8 -3 -24 -7 -35 -9 -11 -2 -36 -8 -55 -13 -135 -36 -188 -46 -299 -56 -41 -3
-78 -8 -82 -11 -8 -4 -43 -9 -159 -19 -25 -2 -72 -8 -105 -14 -33 -5 -67 -9
-75 -9 -8 0 -53 -3 -100 -6 -47 -3 -148 -8 -225 -11 -209 -7 -356 -17 -385
-26 -15 -5 7 -6 53 -3 61 5 77 3 77 -7 1 -17 45 -69 59 -69 5 0 16 -6 23 -13
7 -8 52 -28 98 -46 47 -18 101 -40 120 -49 19 -8 41 -15 48 -13 6 1 12 -3 12
-9 0 -5 10 -10 23 -10 13 0 27 -4 32 -9 6 -5 62 -23 125 -40 63 -17 135 -37
160 -44 25 -8 48 -15 53 -16 4 0 8 -1 10 -2 1 0 9 -2 17 -4 8 -2 26 -7 40 -10
14 -4 38 -8 53 -11 15 -2 36 -8 47 -14 11 -6 23 -9 27 -9 4 1 15 0 23 -3 31
-12 227 -51 270 -54 25 -2 65 -7 90 -11 25 -4 50 -8 55 -8 6 -1 17 -4 25 -8 8
-3 22 -5 30 -5 28 -1 155 -14 168 -18 10 -3 4 -16 -20 -45 -18 -22 -45 -59
-60 -81 -34 -51 -74 -101 -110 -138 -16 -15 -28 -35 -28 -44 0 -9 -9 -21 -20
-28 -11 -7 -20 -18 -20 -24 0 -6 -10 -19 -21 -30 -12 -10 -28 -32 -36 -49 -8
-16 -32 -59 -53 -95 -22 -36 -40 -71 -40 -78 0 -8 -8 -26 -19 -40 -10 -15 -33
-58 -51 -97 -18 -38 -48 -104 -68 -145 -20 -41 -36 -77 -37 -80 -5 -15 -20
-52 -44 -105 -60 -131 -119 -283 -191 -486 -20 -59 -40 -111 -44 -118 -4 -6
-5 -11 -2 -11 3 0 -2 -16 -10 -35 -8 -19 -13 -36 -12 -37 2 -4 -30 -105 -42
-133 -14 -33 -38 -105 -60 -185 -12 -41 -29 -91 -37 -110 -20 -45 -33 -88 -38
-123 -5 -32 -75 -203 -106 -257 -4 -8 -25 -46 -45 -85 -20 -38 -48 -85 -62
-102 -13 -18 -20 -33 -16 -33 5 0 4 -4 -1 -8 -6 -4 -16 -18 -23 -32 -6 -14
-32 -52 -56 -85 -25 -33 -45 -66 -45 -72 -1 -7 -9 -21 -18 -31 -10 -10 -45
-58 -78 -107 -33 -50 -62 -92 -65 -95 -3 -3 -28 -34 -54 -70 -27 -36 -53 -66
-58 -68 -4 -2 -8 -9 -8 -15 0 -7 -11 -24 -25 -39 -14 -15 -25 -30 -25 -33 0
-6 -109 -142 -176 -220 -19 -22 -34 -43 -34 -48 0 -11 -160 -171 -193 -192
-40 -26 -28 -28 22 -3 40 20 44 20 79 4 20 -9 51 -15 69 -13 18 3 35 2 37 -1
3 -2 42 -5 87 -7 115 -3 281 28 337 63 12 8 22 11 22 7 0 -4 6 -2 13 4 8 6 22
12 33 14 10 1 25 6 32 11 7 4 16 5 19 2 3 -3 -1 -61 -9 -128 -9 -68 -16 -136
-16 -153 -1 -16 -3 -46 -6 -65 -30 -227 -39 -646 -22 -1074 7 -181 6 -199 -8
-187 -9 8 -16 10 -16 5 0 -5 -4 -4 -8 3 -4 6 -20 13 -37 16 -16 3 -60 10 -97
16 -37 6 -79 16 -93 21 -14 5 -25 7 -25 4 0 -4 -7 0 -17 7 -9 8 -17 12 -17 10
-1 -2 -19 2 -41 8 -37 9 -79 16 -175 26 -19 2 -35 4 -35 5 0 2 -42 8 -90 13
-22 2 -53 7 -70 10 -59 12 -152 19 -267 21 -65 0 -118 4 -118 7 0 3 -20 3 -45
-1 -25 -4 -48 -3 -51 2 -3 5 -13 7 -22 4 -14 -4 -314 -17 -387 -17 -11 0 -38
-5 -60 -11 -22 -6 -57 -12 -79 -14 -21 -2 -67 -15 -101 -29 -35 -14 -73 -25
-84 -25 -21 0 -49 -22 -163 -129 l-68 -64 -71 2 c-38 1 -80 5 -92 7 -12 3 -69
5 -125 4 -100 0 -142 -9 -142 -31 0 -11 -9 -21 -145 -161 -41 -43 -75 -82 -75
-88 0 -5 -4 -10 -9 -10 -5 0 -26 -24 -47 -52 -21 -29 -49 -64 -61 -78 -13 -14
-23 -30 -23 -37 0 -7 -4 -13 -8 -13 -5 0 -14 -12 -21 -26 -6 -15 -21 -39 -32
-53 -28 -36 -99 -149 -99 -157 0 -4 -6 -15 -14 -23 -8 -9 -29 -45 -46 -81 -18
-36 -40 -73 -49 -84 -9 -10 -15 -19 -14 -20 6 -4 -11 -46 -18 -46 -5 0 -9 -5
-9 -11 0 -6 -7 -25 -15 -42 -8 -18 -21 -52 -29 -77 -8 -25 -24 -70 -36 -100
-21 -54 -40 -113 -41 -127 -1 -5 -5 -16 -11 -26 -9 -18 -16 -43 -23 -82 -2
-11 -11 -54 -20 -95 -32 -139 -63 -305 -76 -405 -5 -38 -11 -81 -13 -95 -13
-68 -27 -351 -26 -515 1 -249 23 -508 50 -600 5 -16 14 -50 21 -75 21 -80 58
-183 95 -270 51 -115 67 -141 83 -130 12 7 12 19 2 69 -12 62 -27 320 -18 311
3 -3 9 -41 12 -85 7 -83 10 -110 25 -235 14 -113 22 -154 31 -165 4 -6 8 -20
8 -30 -1 -23 10 -75 17 -87 3 -5 8 -24 10 -41 3 -18 12 -63 21 -102 10 -38 16
-76 15 -82 -2 -7 2 -13 8 -13 5 0 10 -11 10 -25 0 -14 5 -25 11 -25 5 0 9 -8
8 -17 -1 -10 1 -25 4 -33 3 -8 12 -35 21 -60 8 -25 24 -66 35 -92 11 -27 18
-48 15 -48 -2 0 6 -21 20 -47 13 -27 29 -67 36 -91 8 -23 19 -47 27 -53 7 -6
13 -17 13 -24 0 -7 10 -27 23 -46 13 -19 34 -54 47 -79 14 -25 31 -49 37 -53
7 -4 13 -13 13 -18 0 -42 340 -428 377 -429 7 0 21 -10 33 -22 11 -12 22 -20
24 -17 3 2 -8 67 -25 143 -28 136 -44 246 -53 375 -2 35 -9 67 -14 70 -22 14
-98 78 -118 98 -12 13 -24 23 -28 23 -12 0 -99 95 -123 135 -42 71 -81 195
-87 278 -2 27 -7 51 -10 55 -4 3 -6 85 -6 181 1 117 -4 199 -13 246 -17 83
-29 175 -23 175 2 0 15 -19 29 -43 14 -23 34 -51 46 -61 21 -19 21 -19 21 0 0
10 -8 48 -17 84 -9 36 -17 97 -18 135 -2 39 -6 144 -9 235 -7 162 -6 164 10
126 10 -22 26 -48 36 -58 18 -18 18 -17 14 14 -2 18 -16 87 -31 153 -24 108
-27 134 -22 255 3 89 10 147 20 171 31 74 228 238 270 224 7 -2 28 -6 47 -9
68 -10 116 -24 165 -46 63 -29 56 -26 84 -35 22 -8 23 -11 17 -67 -3 -33 -14
-79 -25 -103 -12 -27 -16 -48 -10 -56 14 -22 10 -107 -6 -138 -21 -41 -83 -63
-105 -36 -10 13 -17 10 -46 -18 -32 -29 -34 -35 -28 -72 3 -22 21 -85 39 -140
68 -210 144 -343 208 -364 33 -11 40 -11 105 4 37 9 53 25 23 25 -24 0 -69 52
-77 88 -10 47 -11 48 -23 19 -17 -42 -31 -23 -31 42 0 64 3 71 30 64 15 -4 18
-12 14 -41 l-4 -37 17 37 c37 76 119 107 186 69 l36 -20 8 37 c4 20 7 127 8
237 0 166 -3 210 -18 259 -13 42 -15 61 -7 66 18 11 -4 52 -49 93 -23 20 -46
37 -51 37 -6 0 -10 6 -10 13 0 7 -25 30 -55 52 -30 22 -55 43 -55 48 0 4 -6 7
-14 7 -8 0 -21 7 -29 15 -21 21 -225 121 -272 134 -55 15 -135 13 -165 -4 -31
-18 -46 -19 -33 -3 6 7 11 20 11 28 2 48 27 166 36 175 6 5 79 43 161 84 83
41 155 82 161 90 7 9 22 27 33 40 12 14 20 29 18 35 -7 22 -40 17 -107 -18
-38 -20 -71 -35 -72 -34 -2 1 -14 -5 -28 -14 -71 -43 -131 -78 -136 -78 -6 0
0 48 9 70 3 8 22 76 43 150 20 74 41 143 46 153 5 10 11 26 13 35 2 9 10 37
18 62 8 25 18 59 23 75 9 35 8 34 19 60 36 88 55 140 55 147 0 13 39 98 45 98
3 0 21 -30 40 -68 136 -262 270 -432 490 -620 55 -48 103 -90 106 -95 4 -5 9
-5 13 1 3 6 1 14 -4 17 -14 9 -32 52 -35 87 -1 14 -9 50 -18 80 -16 54 -33
141 -42 212 -3 22 -9 65 -14 95 -5 31 -8 57 -7 58 2 2 17 -9 34 -25 55 -48
174 -131 329 -228 59 -37 61 -39 36 -44 -29 -5 -44 -30 -19 -30 9 0 16 -5 16
-10 0 -6 8 -13 18 -17 9 -3 25 -13 34 -21 12 -10 48 -16 110 -19 77 -4 103
-10 152 -34 60 -29 86 -36 86 -21 0 4 -6 14 -12 21 -11 11 3 12 77 7 258 -18
273 -21 575 -114 63 -19 122 -37 130 -39 36 -11 -42 40 -117 77 -127 62 -261
95 -571 144 -85 14 -155 26 -157 28 -18 19 -115 162 -126 187 -8 17 -17 31
-21 31 -5 0 -8 8 -8 18 0 10 -4 22 -10 28 -13 13 -60 107 -56 112 2 2 39 -13
83 -34 43 -20 116 -55 163 -76 155 -73 299 -147 395 -206 131 -80 223 -138
251 -159 17 -13 36 -23 41 -23 6 0 16 -7 24 -16 18 -22 89 -57 89 -44 0 6 -7
25 -16 43 -30 60 3 12 41 -58 47 -87 54 -96 73 -93 16 3 71 -91 92 -158 7 -21
19 -49 26 -62 8 -12 12 -22 10 -22 -3 0 4 -26 15 -57 17 -50 42 -143 55 -206
2 -10 6 -28 10 -39 3 -11 7 -30 9 -41 1 -12 12 -85 23 -162 39 -272 28 -487
-44 -845 -27 -130 -28 -127 27 -68 26 29 57 62 67 73 10 11 34 41 52 68 18 26
35 47 38 47 6 0 -3 -76 -53 -445 -2 -16 -11 -66 -20 -110 -9 -44 -18 -92 -20
-106 -2 -15 -9 -46 -15 -70 -6 -24 -14 -55 -17 -69 -3 -14 -9 -29 -13 -35 -4
-5 -11 -32 -15 -60 -12 -74 -24 -114 -102 -345 -65 -191 -66 -191 -112 -214
-22 -12 -73 -38 -113 -58 -87 -44 -116 -56 -239 -104 -229 -88 -297 -102 -574
-119 -55 -3 -129 -8 -165 -11 -36 -3 -107 -5 -158 -5 l-93 1 22 -38 c12 -20
27 -41 34 -47 6 -5 24 -35 39 -65 15 -30 38 -75 50 -99 l23 -44 27 84 c15 46
29 111 32 143 2 33 6 62 9 64 7 7 66 -91 72 -120 3 -16 10 -28 15 -28 5 0 9
-12 7 -27 -1 -16 2 -36 6 -46 6 -16 11 -14 41 17 19 19 34 42 34 51 0 8 5 15
10 15 6 0 10 -1 10 -3 0 -1 8 -25 18 -53 12 -30 16 -57 11 -69 -4 -11 -8 -27
-8 -36 -1 -21 167 -203 263 -285 26 -23 33 -33 22 -37 -8 -3 -33 15 -61 44
-26 27 -85 74 -132 105 -46 31 -91 63 -99 71 -8 8 -21 12 -29 9 -8 -3 -15 -1
-15 4 0 6 -7 10 -16 10 -16 0 -147 43 -199 65 -16 7 -48 16 -70 19 -22 4 -53
11 -70 15 -62 18 -171 41 -196 41 -24 0 -23 2 21 49 42 45 110 162 110 190 0
6 -17 11 -37 12 -21 0 -47 3 -58 6 -11 3 -54 8 -96 13 -42 4 -95 11 -118 15
l-43 7 7 -38 c7 -44 22 -138 31 -202 4 -23 10 -44 13 -47 15 -9 34 16 52 66
10 30 19 52 19 49 1 -3 3 -16 6 -30 2 -14 6 -37 8 -52 4 -19 1 -28 -12 -31
-14 -4 -13 -6 6 -12 20 -7 22 -11 15 -44 -22 -102 -4 -302 37 -398 6 -13 15
-35 21 -50 6 -16 15 -35 20 -43 5 -8 14 -26 19 -39 11 -26 65 -104 93 -135 9
-11 17 -22 17 -25 0 -3 18 -19 39 -35 36 -26 45 -44 56 -106 1 -8 10 -48 19
-89 l16 -75 -27 -35 c-15 -20 -50 -63 -78 -96 -29 -33 -77 -94 -107 -135 -30
-41 -73 -93 -94 -115 -22 -22 -37 -39 -35 -37 2 1 15 -5 29 -14 18 -12 36 -14
74 -9 27 4 64 8 81 10 55 4 108 16 179 40 l69 23 28 -24 c16 -13 34 -24 41
-24 8 0 10 -20 6 -70 -8 -100 -8 -305 -1 -380 10 -104 9 -96 49 -370 6 -36 16
-81 27 -110 4 -14 11 -36 14 -50 8 -41 51 -193 62 -220 6 -14 10 -43 10 -66 0
-22 2 -45 6 -51 3 -5 6 -37 6 -69 0 -32 2 -207 5 -389 5 -282 11 -380 32 -545
1 -14 5 -51 7 -83 3 -32 7 -61 10 -63 3 -3 60 0 126 7 l121 12 -5 31 c-2 17
-9 108 -15 201 -6 94 -13 186 -15 205 -2 19 -6 87 -10 150 -12 211 -43 543
-59 630 -1 8 -6 35 -11 60 -5 25 -8 51 -6 58 1 8 -2 19 -7 25 -5 7 -17 34 -25
61 -16 46 -16 50 1 62 9 7 21 14 26 14 5 0 44 27 88 60 43 33 81 60 84 60 4 0
16 10 28 23 11 13 41 39 66 58 25 18 59 46 76 62 17 15 55 45 85 68 30 22 72
54 94 72 55 44 389 380 449 453 71 84 70 84 141 77 84 -8 175 4 175 23 0 8 -4
14 -10 14 -5 0 -18 15 -27 34 -10 18 -28 52 -41 76 l-24 42 26 27 c14 15 26
31 26 37 0 5 18 29 40 53 22 25 40 48 40 53 0 4 14 22 30 40 17 17 30 37 30
44 0 7 3 14 8 16 11 5 88 110 95 130 4 10 11 18 17 18 5 0 10 6 10 14 0 8 6
21 13 28 48 48 325 507 315 522 -2 2 6 14 17 26 11 12 19 24 18 26 -2 2 -2 6
-2 9 3 12 6 21 11 35 26 67 27 80 7 90 -15 9 -19 7 -19 -5 0 -9 -8 -33 -18
-53 -41 -82 -117 -220 -149 -270 -18 -29 -33 -55 -33 -57 0 -5 -65 -107 -83
-130 -4 -5 -25 -37 -47 -70 -60 -91 -63 -96 -87 -125 -13 -15 -23 -31 -23 -35
0 -3 -17 -27 -38 -53 -21 -26 -49 -64 -62 -84 -14 -20 -25 -36 -27 -35 -1 1 5
31 12 67 14 68 11 159 -6 192 -11 20 -7 27 39 76 6 7 12 17 12 21 0 4 31 45
70 92 38 46 70 89 70 96 0 6 8 18 18 25 10 7 27 27 38 43 10 17 24 36 31 43
44 46 193 301 193 331 0 12 -42 39 -74 47 -21 5 -26 3 -26 -14 0 -11 7 -25 15
-32 16 -13 20 -36 8 -42 -5 -1 -21 -28 -37 -58 -27 -53 -75 -130 -87 -140 -3
-3 -35 -48 -72 -100 -66 -93 -82 -114 -132 -175 -30 -36 -30 -36 -9 63 9 42
18 84 18 93 1 8 12 29 24 46 12 17 22 35 22 40 0 4 20 34 45 65 25 32 45 62
45 67 0 5 6 14 14 20 8 6 33 50 56 98 29 60 40 93 35 110 -7 31 -25 26 -45
-13 -9 -16 -32 -57 -53 -92 -20 -35 -37 -64 -37 -66 0 -2 -21 -34 -46 -72 -26
-38 -43 -58 -40 -44 4 14 9 71 13 128 8 128 -7 171 -72 202 -56 27 -156 27
-225 0 -28 -11 -54 -20 -57 -20 -9 0 40 46 102 95 71 57 165 157 165 176 0 8
-13 33 -30 55 -29 39 -41 69 -18 46 20 -20 35 -14 58 23 12 19 25 35 30 35 4
0 7 -36 6 -79 -1 -54 3 -86 12 -98 13 -17 16 -15 48 22 18 22 41 63 49 90 9
28 20 58 26 67 5 10 9 25 9 33 0 33 15 13 18 -24 4 -69 66 -271 85 -279 4 -2
7 -13 7 -25 0 -18 2 -19 10 -7 5 8 7 27 5 41 -11 63 -16 113 -21 244 -8 181
-8 214 1 309 7 77 33 165 35 121 6 -94 67 -281 138 -420 33 -66 110 -194 122
-205 3 -3 21 -25 40 -50 19 -25 38 -46 42 -48 5 -2 8 -16 9 -30 0 -23 2 -24 8
-8 7 18 8 18 24 -4 9 -13 19 -22 21 -19 3 3 -5 16 -18 31 -14 14 -26 36 -28
49 -2 13 -9 23 -16 21 -10 -2 -11 4 -6 20 9 27 7 64 -5 133 -5 28 -10 57 -10
65 0 8 -2 31 -4 50 -2 19 -8 67 -12 105 -4 39 -11 77 -16 85 -4 9 -10 96 -13
195 l-6 180 39 -82 c49 -102 97 -174 156 -235 25 -27 48 -48 50 -48 2 0 0 12
-4 28 -5 15 -17 63 -26 107 -9 44 -21 94 -25 110 -5 17 -12 63 -15 103 -3 40
-10 84 -15 98 -6 14 -12 47 -15 74 -5 50 -10 85 -20 127 -3 13 -7 33 -10 45
-12 53 -24 418 -15 418 3 0 11 -21 19 -48 37 -137 111 -304 167 -379 13 -17
24 -39 24 -48 0 -9 5 -13 11 -9 6 3 27 -9 47 -27 20 -19 30 -25 22 -14 -8 11
-19 25 -25 30 -34 33 -44 73 -46 192 -1 67 1 125 4 130 3 4 6 69 6 143 1 74 6
173 11 220 5 47 12 114 15 150 3 36 10 89 17 118 9 41 9 57 -2 76 -7 15 -9 29
-4 38 5 7 10 22 11 33 3 42 13 111 18 135 12 60 26 206 31 340 4 80 11 150 16
157 11 14 13 281 3 378 -4 39 -8 88 -10 110 -2 22 -4 40 -5 40 -1 0 -4 20 -6
45 -2 25 -7 56 -11 70 -3 14 -6 27 -5 30 0 3 3 31 6 62 3 32 9 74 15 95 32
123 43 174 38 179 -3 3 -1 18 5 33 24 64 21 114 -17 227 -20 60 -42 121 -50
135 -8 14 -12 29 -8 32 3 4 1 12 -4 19 -6 7 -13 27 -16 43 -3 17 -8 40 -11 53
-3 12 -8 30 -10 40 -12 52 -59 208 -66 217 -4 6 -10 24 -13 40 -11 58 -30 125
-37 125 -3 0 -7 11 -8 25 -1 14 -9 41 -17 61 -8 20 -15 45 -15 55 0 11 -4 19
-9 19 -4 0 -11 21 -15 48 -3 26 -12 61 -20 77 -7 17 -20 50 -28 75 -13 44 -13
48 13 95 15 28 48 91 74 140 26 50 52 97 58 105 7 8 23 38 36 65 13 28 29 62
37 77 8 14 14 33 14 41 0 8 6 20 14 26 8 7 17 24 21 39 3 15 28 71 56 125 27
53 48 101 47 105 -1 4 11 34 26 67 32 67 61 142 100 260 15 44 31 87 35 95 5
9 12 31 16 50 4 19 13 46 21 60 14 26 75 214 78 240 1 8 8 25 14 37 7 12 12
28 12 36 0 7 10 44 21 81 21 68 22 68 53 61 17 -3 40 -8 51 -10 34 -6 139 -36
153 -44 7 -4 42 -95 78 -202 36 -107 73 -212 83 -234 33 -70 49 -109 61 -147
6 -21 21 -57 34 -80 12 -24 28 -62 36 -85 7 -24 17 -43 22 -43 4 0 7 -3 6 -7
-1 -5 4 -19 10 -33 6 -14 28 -65 49 -115 48 -109 164 -306 233 -394 52 -67 69
-74 26 -12 -18 27 -29 64 -40 139 -9 57 -19 109 -22 115 -5 8 -4 9 2 2 6 -5
16 -28 23 -50 8 -22 29 -73 47 -113 19 -41 34 -80 34 -88 0 -8 4 -14 8 -14 4
0 21 -29 37 -65 16 -36 32 -65 36 -65 4 0 11 -9 14 -20 4 -11 22 -44 41 -73
19 -28 34 -56 34 -62 0 -5 6 -21 13 -36 8 -14 26 -59 40 -100 24 -69 84 -195
126 -264 17 -29 44 -99 46 -120 0 -5 9 -28 18 -50 12 -25 18 -64 18 -105 0
-144 28 -138 36 9 7 103 20 139 19 49 -1 -204 6 -369 17 -365 14 4 14 12 20
302 2 128 -2 272 -8 344 -12 121 -12 158 0 346 3 50 8 140 11 200 3 61 7 126
9 145 2 19 6 64 9 100 9 97 16 161 21 200 7 46 16 131 17 150 0 8 4 49 9 90 6
41 11 102 14 135 7 104 31 230 36 189 9 -64 12 -462 4 -474 -3 -5 -8 -53 -11
-106 -4 -76 -2 -95 8 -92 7 2 20 25 28 50 9 25 21 52 27 59 31 40 118 239 149
344 19 66 42 134 50 152 7 17 14 39 14 48 0 9 11 50 25 91 14 41 25 83 25 94
0 10 5 22 10 25 6 4 8 10 6 14 -2 3 5 45 16 91 22 93 22 94 38 195 16 102 21
110 77 124 26 6 77 20 113 31 90 26 152 36 325 54 83 8 242 25 355 37 256 26
262 27 335 29 33 1 82 6 108 11 52 9 251 23 357 23 53 1 64 -2 61 -14 -2 -8
-4 -28 -5 -45 -2 -16 -5 -37 -9 -45 -3 -8 -8 -43 -11 -77 -2 -35 -7 -67 -10
-71 -3 -5 -8 -28 -11 -51 -3 -24 -14 -77 -24 -119 -11 -43 -22 -91 -24 -109
-3 -18 -9 -47 -15 -65 -5 -18 -18 -71 -28 -118 -9 -47 -21 -90 -26 -96 -4 -6
-13 -38 -19 -70 -6 -33 -27 -108 -46 -169 -54 -168 -83 -225 -113 -225 -7 0
-26 -7 -43 -15 -42 -19 -224 -94 -262 -107 -16 -6 -37 -16 -45 -23 -8 -7 -43
-27 -78 -45 -34 -18 -65 -36 -68 -41 -3 -5 -14 -9 -25 -9 -10 0 -19 -4 -19
-10 0 -5 -6 -10 -14 -10 -7 0 -19 -7 -26 -15 -6 -7 -35 -27 -63 -43 -29 -17
-68 -44 -87 -61 -157 -137 -220 -197 -220 -211 0 -6 -5 -10 -11 -8 -10 3 -86
-70 -127 -122 -7 -8 -23 -27 -37 -42 -53 -60 -141 -205 -131 -215 2 -2 15 9
28 24 40 45 105 111 84 86 -29 -34 -5 -28 40 10 21 19 59 46 84 60 57 33 254
130 300 148 19 7 41 19 48 26 7 7 20 13 28 13 8 0 14 4 14 8 0 5 19 17 43 27
23 10 56 23 72 30 17 7 65 19 108 26 42 7 77 16 77 19 0 3 8 6 18 7 22 3 270
68 302 81 14 5 31 7 38 5 7 -3 20 -1 30 3 21 9 69 20 127 30 6 1 12 3 15 4 3
1 19 4 35 5 17 2 77 13 134 24 58 11 106 19 108 18 6 -7 24 -115 28 -177 3
-36 9 -80 14 -97 6 -19 6 -46 1 -63 -5 -16 -5 -30 -1 -30 4 0 5 -21 3 -47 -3
-27 -6 -74 -8 -106 -1 -32 -5 -65 -8 -73 -4 -9 3 -18 18 -24 13 -5 34 -24 47
-42 22 -30 24 -42 22 -139 -1 -84 -6 -117 -22 -154 -12 -26 -21 -52 -21 -57 0
-13 -82 -118 -110 -141 -53 -44 -115 -48 -159 -11 l-31 26 -19 -23 c-11 -13
-44 -49 -74 -80 l-54 -56 26 -104 c15 -57 30 -110 34 -116 5 -7 5 -13 1 -13
-3 0 -2 -6 4 -12 5 -7 13 -29 17 -48 4 -19 13 -48 20 -65 7 -16 29 -75 50
-130 21 -55 50 -127 65 -160 15 -33 35 -80 45 -105 30 -70 64 -130 109 -190
92 -123 165 -178 244 -184 28 -2 49 0 46 5 -4 7 77 15 108 10 14 -2 84 32 115
55 17 13 36 24 42 24 19 0 12 17 -9 23 -38 10 -54 108 -26 164 8 15 22 45 32
66 10 20 22 37 26 37 5 0 8 6 8 13 0 25 101 137 138 153 43 19 98 22 115 5 17
-17 27 -13 27 9 0 11 4 20 9 20 13 0 62 153 74 230 2 9 6 20 9 25 7 12 20 80
22 115 0 14 4 27 8 30 10 8 17 66 25 195 11 172 4 469 -10 492 -3 5 -9 36 -12
69 -3 32 -10 75 -15 94 -5 19 -12 58 -15 85 -3 28 -10 59 -15 70 -5 11 -19 52
-30 90 -12 39 -29 88 -37 109 -14 38 -13 39 4 25 10 -8 27 -25 38 -39 11 -13
28 -31 39 -40 10 -8 28 -26 40 -38 12 -13 38 -43 59 -65 20 -23 44 -49 51 -57
22 -24 77 -117 74 -127 -1 -4 3 -26 9 -48 19 -70 42 -207 48 -290 3 -44 11
-123 17 -175 11 -98 12 -276 2 -342 -16 -106 40 18 72 157 4 17 11 35 16 41 5
7 8 16 6 20 -1 5 6 35 15 67 22 73 37 139 43 197 2 25 10 83 16 130 19 145 16
371 -7 529 -3 24 -17 61 -31 82 -13 21 -24 42 -24 47 0 4 -20 36 -45 70 -25
34 -45 64 -45 66 0 3 -12 18 -27 34 -16 15 -44 48 -63 72 -41 51 -256 270
-266 270 -3 0 -19 10 -34 23 -15 12 -40 31 -55 42 -16 11 -33 25 -39 31 -6 5
-32 20 -57 32 -41 20 -66 23 -240 27 -107 3 -218 1 -247 -3 l-53 -9 28 31 c15
16 33 35 39 41 5 5 23 28 39 50 16 22 36 48 44 57 27 29 38 43 65 86 14 23 30
42 35 42 6 0 12 8 16 19 3 10 13 28 23 39 64 74 99 118 112 141 8 14 18 28 21
31 4 3 22 34 40 70 19 36 37 67 41 70 4 3 11 18 17 33 6 15 14 27 19 27 8 0
82 -84 82 -94 0 -2 27 -31 61 -63 138 -133 215 -213 211 -218 -3 -3 0 -5 6 -5
6 0 81 -64 165 -142 173 -161 216 -198 226 -198 4 0 28 -19 52 -43 24 -23 58
-51 74 -61 17 -11 34 -25 38 -33 4 -7 15 -13 22 -13 8 0 15 -4 15 -10 0 -5 6
-10 14 -10 8 0 17 -7 20 -15 3 -9 20 -22 38 -30 43 -18 101 -69 105 -92 18
-104 23 -278 25 -733 1 -435 0 -477 -13 -600 -5 -52 -12 -144 -14 -205 -3 -60
-7 -132 -11 -160 -3 -27 -7 -70 -10 -95 -2 -25 -7 -75 -12 -112 -5 -37 -5 -71
-1 -75 5 -5 4 -26 -1 -48 -5 -22 -12 -78 -15 -125 -7 -84 -11 -122 -20 -210
-3 -25 -5 -63 -5 -85 0 -35 -5 -73 -26 -165 -3 -13 -7 -45 -9 -70 -2 -25 -4
-45 -5 -45 -1 0 -4 -13 -6 -30 -2 -16 -11 -77 -20 -135 -8 -58 -17 -132 -20
-165 -5 -61 -6 -72 -23 -139 -5 -21 -6 -35 -2 -30 16 18 123 420 175 659 101
459 166 900 208 1410 18 217 18 1152 0 1370 -7 88 -24 261 -38 385 -194 1759
-877 3432 -1974 4836 -256 327 -466 562 -811 905 l-287 287 -83 -3 c-74 -3
-111 -7 -184 -22 -11 -2 -47 -6 -80 -8 -33 -3 -73 -8 -90 -12 -42 -9 -55 -12
-95 -18 -19 -4 -44 -10 -55 -15 -33 -14 -180 -50 -203 -50 -12 0 -30 -4 -40
-10 -22 -12 -134 -44 -145 -41 -8 1 -80 -30 -158 -69 -33 -17 -37 -17 -62 -2
-15 9 -27 20 -27 23 0 9 -77 88 -111 114 -14 11 -61 53 -104 92 -43 40 -91 78
-106 85 -15 7 -33 23 -40 35 -7 12 -19 25 -28 28 -9 3 -36 23 -60 45 -24 22
-52 42 -62 45 -11 4 -19 11 -19 16 0 5 -5 9 -11 9 -10 0 -56 34 -99 74 -8 8
-21 16 -29 18 -7 2 -24 13 -37 26 -13 12 -28 22 -34 22 -7 0 -49 27 -95 60
-46 33 -88 60 -93 60 -5 0 -12 7 -16 15 -3 8 -10 15 -17 15 -6 0 -29 16 -52
35 -22 19 -49 35 -58 35 -10 0 -21 5 -24 10 -3 6 -25 19 -48 31 -23 11 -69 36
-102 55 -33 18 -84 45 -112 60 -29 14 -55 29 -58 34 -3 5 -19 11 -36 15 -17 4
-33 13 -35 20 -3 8 -23 16 -45 20 -21 4 -39 10 -39 13 0 11 -239 128 -300 147
-14 4 -41 18 -61 31 -20 12 -56 28 -80 35 -24 7 -48 15 -54 19 -5 3 -30 12
-55 19 -25 7 -54 17 -65 21 -75 30 -109 40 -134 40 -16 0 -34 7 -41 15 -7 8
-22 14 -34 13 -11 0 -28 2 -36 5 -8 3 -22 3 -30 0z m3488 -5263 c6 -4 59 -3
68 1 29 16 326 -1 474 -28 19 -3 46 -6 60 -5 14 0 30 -3 35 -8 6 -4 66 -16
135 -26 133 -19 154 -30 166 -81 3 -16 10 -37 15 -48 5 -11 11 -29 13 -40 3
-11 18 -60 35 -110 30 -86 48 -147 56 -190 2 -11 15 -74 30 -140 38 -174 45
-219 48 -304 2 -48 0 -54 -21 -62 -15 -6 -37 -6 -57 0 -19 5 -36 7 -38 5 -4
-4 -226 -14 -397 -18 -25 -1 -49 -4 -55 -7 -5 -3 -45 -6 -88 -7 -43 -1 -81 -4
-86 -6 -4 -3 -55 -8 -112 -11 -57 -3 -126 -10 -154 -15 -27 -6 -81 -14 -120
-20 -116 -17 -137 -20 -220 -40 -122 -28 -233 -69 -302 -110 -58 -36 -62 -37
-67 -17 -3 11 -2 25 1 31 4 6 8 24 10 41 4 30 10 66 13 75 1 3 2 8 1 12 0 4 6
42 14 85 7 43 17 101 21 128 7 55 9 69 23 135 5 25 12 72 15 105 9 85 13 110
20 132 8 28 18 203 19 368 l2 149 35 8 c19 4 107 10 194 13 87 2 160 6 162 8
4 3 46 1 52 -3z m-2442 -1136 c-3 -6 -1 -15 4 -20 5 -5 13 -27 19 -49 5 -22
25 -92 44 -156 l34 -117 -46 23 c-25 13 -70 31 -98 41 -29 10 -53 23 -53 29 1
13 14 64 35 135 9 30 18 71 21 90 2 19 5 46 7 60 2 14 5 34 6 45 1 12 8 3 17
-25 7 -25 12 -50 10 -56z m3589 -1146 c-23 -49 -41 -66 -73 -67 -8 -1 9 26 38
59 29 33 54 60 56 60 1 0 -8 -24 -21 -52z m-5135 -597 c0 -11 -4 -22 -10 -26
-5 -3 -7 -12 -3 -20 3 -8 2 -23 -2 -32 -4 -10 -8 -29 -10 -43 -5 -69 -27 -235
-31 -242 -3 -4 -7 -33 -9 -64 -5 -63 -22 -175 -28 -180 -1 -2 -30 10 -63 26
-32 17 -65 30 -71 30 -7 0 -13 5 -13 10 0 6 -7 10 -14 10 -18 0 -11 18 79 205
34 72 66 141 70 155 4 14 14 32 22 42 8 9 16 22 17 30 1 7 9 29 18 48 9 19 18
43 22 53 7 23 26 22 26 -2z m286 -868 c-3 -3 -12 0 -21 7 -16 13 -12 43 9 69
9 11 12 5 14 -28 2 -24 1 -46 -2 -48z m5279 -182 c17 -7 41 -15 55 -18 19 -3
26 -12 28 -30 1 -14 -1 -29 -4 -34 -3 -6 -7 -36 -7 -68 -2 -68 -24 -101 -67
-101 -21 0 -30 7 -38 28 -15 41 -30 110 -38 179 -6 61 -6 62 17 59 13 -1 38
-8 54 -15z m-265 -436 c9 -17 24 -43 34 -58 10 -15 20 -44 21 -65 2 -20 6 -73
9 -117 8 -112 -12 -354 -31 -373 -17 -17 -29 -6 -107 98 -22 30 -43 57 -47 60
-3 3 -11 20 -18 37 -7 18 -24 45 -37 60 -13 16 -24 40 -24 54 0 33 41 151 73
212 14 26 23 47 20 47 -2 0 3 7 12 16 9 9 23 28 32 41 20 31 44 26 63 -12z
m240 -106 c4 -14 10 -83 14 -153 3 -70 8 -132 12 -137 3 -5 8 -60 11 -122 5
-95 3 -115 -10 -126 -37 -30 -60 -1 -72 89 -3 19 -14 91 -25 160 -20 124 -25
271 -10 300 5 9 22 16 41 15 26 0 34 -5 39 -26z m-5506 -82 c18 -25 21 -45 24
-163 2 -74 6 -134 8 -134 2 0 20 11 40 25 58 40 111 52 143 34 54 -31 20 -128
-71 -199 -44 -36 -47 -40 -29 -49 25 -14 65 -84 85 -150 14 -49 14 -56 -1 -88
-16 -34 -18 -35 -61 -30 -24 3 -56 14 -70 24 -30 22 -90 102 -91 120 -1 6 -6
15 -11 18 -6 4 -9 3 -8 -2 4 -12 -36 -133 -44 -133 -5 0 -8 -6 -8 -14 0 -17
-63 -66 -85 -66 -28 0 -74 32 -77 54 -6 43 10 150 30 199 15 36 15 37 -4 37
-35 0 -131 57 -185 111 -27 27 -49 80 -49 119 0 37 17 61 53 73 25 9 111 -11
167 -39 27 -13 52 -24 57 -24 5 0 6 24 3 55 -3 31 -3 87 1 125 7 60 12 74 39
100 28 27 38 31 77 28 37 -2 50 -9 67 -31z m-2750 -1852 c13 -20 14 -35 7 -90
-9 -63 -32 -115 -50 -115 -10 0 -27 59 -36 122 -12 83 42 140 79 83z m1679
-3017 c29 -15 22 -123 -19 -305 -20 -87 -37 -165 -39 -173 -2 -8 -4 -24 -4
-34 -1 -11 -20 -37 -43 -59 -28 -25 -33 -33 -15 -22 15 10 30 15 33 12 10 -10
-7 -47 -21 -47 -7 0 -26 -7 -41 -15 -45 -23 -57 -20 -49 13 4 15 9 34 11 42
27 112 35 145 39 173 3 17 16 86 30 152 26 127 31 208 16 248 -6 14 -7 27 -5
30 7 7 85 -4 107 -15z m72 -384 c7 -47 5 -53 -13 -58 -10 -4 -27 -15 -37 -26
-10 -11 -21 -20 -25 -20 -6 0 12 83 46 215 8 33 5 45 29 -111z m-254 29 c-5
-21 -19 -76 -30 -123 -11 -47 -23 -98 -27 -115 -4 -16 -8 -32 -9 -35 -12 -50
-18 -57 -65 -78 -27 -12 -50 -25 -50 -28 0 -3 20 -3 45 1 l46 6 -7 -28 c-4
-15 -18 -59 -31 -98 -13 -38 -36 -108 -51 -155 l-27 -85 -5 55 c-3 30 -1 91 3
135 4 44 11 116 15 160 7 75 11 86 69 180 65 106 123 220 123 244 0 8 3 12 6
9 3 -3 1 -23 -5 -45z m1055 -89 c-9 -8 -16 -21 -16 -27 -1 -13 -30 22 -30 35
0 4 14 8 31 8 28 0 29 -1 15 -16z m-781 -61 c6 -32 5 -33 -56 -63 -66 -32 -76
-32 -64 -3 5 10 9 23 9 30 1 15 89 83 97 75 4 -4 10 -21 14 -39z m29 -158 c9
-47 14 -90 11 -95 -3 -5 -1 -19 5 -30 9 -16 15 -18 29 -10 17 8 19 5 23 -30 3
-36 -1 -44 -72 -123 -41 -46 -93 -105 -115 -131 -22 -26 -60 -68 -85 -94 -25
-26 -63 -68 -85 -93 -22 -25 -52 -53 -66 -63 -26 -17 -26 -14 32 161 79 239
76 230 93 298 9 33 26 98 38 144 l23 84 70 34 c38 18 72 33 76 33 3 0 14 -38
23 -85z m-231 -37 c-3 -18 -14 -58 -24 -88 -9 -30 -27 -91 -39 -135 -12 -44
-25 -87 -28 -95 -3 -8 -4 -20 -3 -27 1 -6 -3 -14 -9 -18 -5 -3 -10 -17 -10
-31 0 -13 -4 -32 -9 -42 -12 -21 -24 -54 -25 -67 -1 -5 -12 -45 -26 -88 l-25
-78 -35 6 c-19 4 -39 12 -43 18 -16 23 2 114 51 262 27 83 53 166 57 185 4 19
11 40 15 45 4 6 11 28 15 50 11 62 32 93 78 114 61 28 68 27 60 -11z m747 12
c0 -5 7 -10 15 -10 8 0 15 -3 15 -6 0 -9 -74 -98 -130 -159 -26 -27 -73 -78
-105 -112 -31 -34 -60 -61 -64 -60 -3 1 -35 -28 -71 -64 -130 -130 -351 -322
-520 -451 -41 -31 -89 -69 -107 -83 l-32 -26 -7 38 c-4 21 -10 45 -14 53 -6
10 32 54 133 157 78 78 171 174 207 213 36 39 92 99 125 134 103 108 159 170
200 221 64 80 68 83 110 94 95 23 182 48 200 59 25 14 45 15 45 2z m-1136
-235 c5 -201 12 -295 42 -545 7 -61 34 -180 47 -205 9 -18 7 -18 -15 3 -31 28
-42 28 -66 -3 l-19 -24 -21 92 c-32 141 -42 196 -47 269 -2 36 -7 77 -10 90
-15 66 -28 357 -19 428 5 39 12 49 53 77 25 18 47 29 48 25 1 -4 4 -97 7 -207z
m156 -959 c0 -17 9 -102 19 -190 11 -89 22 -201 25 -250 l6 -89 -20 18 c-24
22 -81 29 -92 12 -9 -14 -8 -21 -13 158 -1 72 -6 155 -10 185 -4 30 -7 62 -7
70 -1 8 -4 20 -7 25 -4 6 -8 26 -10 45 -2 19 -7 43 -12 52 -13 24 -11 50 4 45
16 -6 67 20 68 36 1 24 49 -89 49 -117z m64 -696 c6 -121 21 -345 31 -461 4
-55 4 -57 -18 -52 -12 3 -28 10 -35 16 -9 7 -20 6 -37 -3 -20 -11 -25 -22 -26
-54 -1 -33 -3 -27 -14 33 -8 41 -14 91 -15 110 -1 47 -7 147 -14 241 -10 128
-12 240 -5 252 5 8 11 9 21 1 20 -16 61 -6 82 22 11 13 21 24 22 22 1 -1 5
-58 8 -127z"/>
<path d="M18236 16221 c11 -10 74 -32 74 -26 0 3 -13 11 -30 20 -32 16 -60 21
-44 6z"/>
<path d="M4317 12603 c-4 -3 -41 -5 -84 -5 -43 1 -96 -4 -118 -10 -22 -6 -44
-10 -50 -9 -36 11 -204 -1 -265 -19 -18 -5 -36 -8 -39 -5 -4 2 -25 -1 -47 -6
-59 -14 -144 -30 -189 -35 -76 -8 -301 -75 -400 -119 -29 -13 -73 -29 -165
-62 -25 -9 -56 -24 -70 -33 -14 -9 -50 -27 -80 -39 -30 -13 -62 -29 -70 -35
-8 -7 -30 -19 -49 -26 -18 -7 -45 -23 -60 -35 -14 -12 -37 -26 -51 -30 -14 -4
-47 -24 -73 -44 -27 -20 -52 -36 -58 -36 -5 0 -21 -11 -36 -26 -16 -14 -42
-31 -60 -38 -17 -7 -34 -19 -37 -27 -3 -8 -12 -14 -20 -14 -8 0 -16 -3 -18 -7
-1 -5 -22 -20 -45 -36 -24 -15 -43 -32 -43 -37 0 -6 -6 -10 -13 -10 -7 0 -23
-9 -35 -20 -12 -11 -24 -20 -27 -20 -3 0 -14 -8 -24 -17 -21 -19 -23 -21 -86
-68 -22 -16 -50 -40 -61 -52 -12 -13 -31 -23 -42 -23 -11 0 -42 -18 -69 -40
-26 -22 -53 -44 -58 -48 -6 -4 -27 -20 -47 -37 -21 -16 -57 -45 -80 -63 -258
-201 -378 -303 -378 -323 0 -5 -4 -9 -8 -9 -5 0 -26 -23 -48 -51 -21 -27 -49
-62 -62 -77 -33 -37 -116 -164 -118 -179 -1 -7 -9 -20 -18 -29 -16 -16 -66
-117 -66 -133 0 -14 -50 -110 -60 -116 -6 -3 -10 -15 -10 -25 0 -10 -3 -20 -7
-22 -10 -4 -43 -75 -43 -92 0 -8 -7 -19 -15 -26 -8 -7 -13 -16 -10 -20 3 -4
-4 -36 -16 -70 -11 -34 -18 -65 -15 -68 3 -3 2 -10 -3 -16 -20 -24 -49 -144
-58 -236 -3 -36 -9 -73 -12 -82 -9 -25 -1 -129 10 -122 5 3 5 -4 0 -18 -5 -13
-9 -40 -9 -60 0 -87 -25 -171 -58 -199 -9 -7 -33 -38 -54 -69 l-38 -56 39 -17
c22 -9 42 -17 45 -17 16 0 103 -85 108 -106 4 -13 10 -24 14 -24 5 0 8 -26 8
-58 -1 -46 -9 -73 -38 -133 -40 -80 -108 -166 -142 -178 -19 -8 -19 -9 7 -35
15 -15 43 -34 63 -42 39 -16 135 -17 175 -1 13 6 29 11 34 13 6 1 18 5 28 9
22 9 22 -4 0 -35 -10 -14 -18 -31 -20 -38 -1 -8 -11 -21 -23 -29 -11 -8 -20
-20 -19 -26 2 -13 -25 -71 -73 -157 -56 -102 -78 -145 -78 -156 0 -6 -7 -18
-16 -25 -13 -11 -32 -45 -39 -69 0 -3 -11 -25 -22 -50 l-21 -45 24 -115 c23
-105 34 -142 34 -111 0 6 18 40 40 75 22 35 40 68 40 73 0 6 7 16 15 23 8 7
29 42 47 79 18 36 35 68 38 71 3 3 13 22 23 44 10 21 20 36 23 33 5 -4 -46
-162 -71 -222 -21 -49 -28 -69 -30 -88 -1 -11 -8 -23 -16 -28 -8 -5 -10 -9 -5
-9 6 0 5 -5 -2 -12 -7 -7 -12 -24 -12 -38 0 -15 -3 -30 -7 -34 -5 -4 -8 -15
-8 -24 0 -18 -20 -74 -36 -105 -21 -39 165 -674 318 -1087 380 -1023 925
-1968 1617 -2800 388 -467 849 -924 1321 -1312 204 -167 437 -340 445 -331 32
37 32 171 2 319 -12 58 -44 143 -73 197 -11 20 -17 37 -13 37 3 0 0 7 -7 16
-7 9 -18 24 -24 34 -21 36 -68 105 -75 110 -3 3 -21 26 -39 52 -37 55 -258
278 -275 278 -7 0 -28 16 -47 36 l-34 36 54 -7 c71 -9 171 -10 312 -1 108 7
119 6 154 -14 108 -61 185 -142 185 -195 0 -28 25 -10 28 20 3 25 -8 59 -50
151 -10 22 -42 62 -83 105 l-26 26 -292 -3 c-161 -2 -299 -4 -307 -4 -8 0 -34
0 -56 0 -29 -1 -54 7 -79 25 -21 14 -42 25 -47 25 -5 0 -28 13 -51 28 -23 16
-68 41 -100 57 -33 16 -64 33 -71 39 -6 6 -34 23 -61 38 -49 26 -78 59 -39 44
11 -5 33 -10 49 -13 17 -3 37 -8 45 -13 8 -4 49 -13 90 -20 41 -7 79 -17 85
-22 5 -4 33 -8 62 -8 29 0 53 -4 53 -10 0 -5 6 -7 14 -4 8 3 34 -1 59 -10 24
-8 66 -17 94 -19 27 -2 54 -6 59 -9 17 -11 148 -21 308 -23 89 -1 175 -6 193
-10 54 -12 153 -134 153 -189 0 -15 5 -36 10 -47 6 -10 11 -38 11 -61 1 -133
-2 -186 -11 -213 -9 -29 -18 -79 -25 -140 -5 -55 -25 -189 -30 -205 -2 -8 -18
-109 -35 -225 -17 -115 -33 -217 -35 -226 -4 -10 4 -23 20 -33 14 -9 25 -15
25 -13 0 12 31 225 35 237 6 21 53 354 58 420 3 30 15 102 27 160 22 105 31
280 17 330 -4 13 -18 47 -32 76 -14 28 -25 55 -25 60 0 10 39 26 185 75 50 17
95 35 100 39 6 4 26 10 46 14 20 3 59 18 87 31 29 14 54 25 58 25 3 0 20 11
37 24 18 14 36 25 40 25 11 0 189 106 265 158 35 24 65 43 68 43 2 0 17 12 33
28 16 15 43 35 59 45 l30 17 57 -59 c31 -32 70 -77 86 -100 17 -22 34 -41 39
-41 4 0 10 -10 14 -23 3 -12 14 -32 25 -43 57 -62 76 -154 31 -154 -26 0 -25
-4 7 -44 46 -58 34 -153 -28 -219 -10 -12 -19 -27 -19 -35 0 -8 -10 -28 -22
-45 -13 -17 -27 -39 -33 -48 -5 -9 -27 -43 -49 -75 -21 -32 -43 -68 -49 -81
-17 -39 -25 -26 -14 27 5 28 14 50 19 50 5 0 7 4 3 9 -3 5 26 76 63 158 87
186 104 231 92 238 -5 3 -24 -18 -43 -48 -31 -47 -192 -370 -284 -567 -46 -99
-104 -210 -185 -355 -15 -27 -31 -57 -35 -65 -3 -8 -28 -47 -55 -87 -26 -40
-48 -79 -48 -88 0 -8 -4 -15 -8 -15 -5 0 -14 -12 -21 -27 -48 -107 211 276
270 399 12 25 31 49 41 51 20 6 34 -8 18 -18 -5 -3 -10 -12 -10 -18 1 -7 15 4
32 23 17 19 28 31 26 25 -3 -5 -16 -32 -28 -60 -12 -27 -31 -68 -42 -90 -11
-22 -32 -69 -45 -105 -14 -36 -28 -69 -33 -75 -4 -5 -33 -59 -63 -120 -102
-206 -135 -270 -182 -358 -26 -48 -45 -93 -42 -100 8 -19 430 -255 675 -377
434 -216 792 -365 1233 -515 277 -94 679 -208 702 -199 16 6 183 185 179 191
-2 3 6 13 17 22 12 10 21 23 21 30 0 6 3 11 8 11 14 0 102 165 109 205 7 40
42 133 54 140 5 4 9 17 9 29 0 34 17 43 95 51 39 3 86 8 105 10 19 2 82 18
140 35 58 17 110 33 116 34 6 1 22 8 35 16 13 8 42 24 64 35 22 11 42 22 45
25 3 4 21 16 40 27 19 12 60 50 90 84 30 34 63 70 72 78 20 20 98 172 98 193
0 8 3 18 7 22 8 7 10 20 19 99 4 39 3 57 -5 57 -6 0 -11 14 -11 32 0 44 -12
27 -16 -23 -2 -23 -12 -53 -23 -68 -10 -14 -21 -33 -24 -41 -3 -8 -6 12 -6 44
-1 56 -54 299 -70 321 -4 6 -15 30 -25 54 -9 24 -28 58 -41 76 -14 17 -25 37
-25 44 0 6 -14 20 -31 30 -18 11 -26 22 -20 25 17 11 13 67 -6 82 -20 15 -89
19 -97 5 -4 -5 3 -30 13 -55 11 -25 21 -53 23 -63 2 -11 14 -20 33 -23 35 -6
73 -57 105 -140 12 -30 26 -63 31 -72 5 -10 9 -27 9 -38 0 -11 4 -28 9 -38 13
-25 30 -114 41 -222 8 -78 7 -99 -5 -117 -22 -34 -148 -153 -161 -153 -7 0
-14 -6 -17 -14 -3 -8 -18 -20 -34 -29 -15 -8 -41 -21 -58 -30 l-29 -16 -28 42
c-16 23 -74 134 -130 246 -96 193 -101 205 -92 240 16 57 0 79 -32 47 -18 -19
-12 -116 13 -189 19 -56 130 -280 180 -364 27 -44 29 -52 15 -57 -9 -2 -48
-17 -87 -31 -97 -36 -159 -53 -219 -60 -51 -7 -51 -6 -52 22 -6 123 -12 202
-17 209 -3 5 -8 30 -11 54 -15 107 -30 178 -47 217 -10 23 -29 71 -40 105 -30
84 -65 152 -111 215 -21 29 -38 57 -38 63 0 5 -3 10 -7 10 -5 0 -19 17 -33 37
-14 21 -38 49 -54 63 -66 56 -73 68 -67 118 3 26 5 64 6 85 0 38 0 38 33 32
37 -7 62 3 41 16 -8 5 -26 9 -41 9 -20 0 -28 7 -36 29 -6 16 -8 31 -6 34 4 3
-2 40 -20 126 -5 21 -4 22 12 9 27 -22 91 -53 97 -46 3 3 -27 29 -66 59 -61
47 -75 64 -104 125 -18 39 -39 77 -47 85 -7 8 -32 39 -54 69 -23 30 -74 89
-113 130 -39 41 -71 78 -71 82 0 4 -5 8 -10 8 -10 0 -63 54 -149 150 -39 43
-70 105 -73 145 -3 40 12 106 27 125 7 8 20 29 28 45 9 17 40 57 71 90 30 33
56 65 56 71 0 6 11 16 25 22 14 6 25 16 25 22 0 5 5 10 11 10 17 0 126 120
173 192 24 38 42 68 40 68 -3 0 8 24 25 54 16 30 27 57 24 60 -4 3 -1 6 5 6 6
0 9 7 6 15 -4 8 -2 15 2 15 5 0 10 17 11 37 1 20 6 39 11 42 16 11 37 215 36
351 -3 210 -15 425 -27 466 -3 11 -9 48 -12 84 -3 36 -10 81 -15 100 -4 19 -8
49 -9 65 0 17 -5 55 -11 85 -6 30 -11 65 -11 77 1 12 -4 25 -9 28 -5 3 -7 12
-4 19 3 7 -2 33 -10 57 -7 24 -17 62 -20 84 -4 22 -11 51 -15 65 -5 14 -14 50
-21 80 -7 30 -17 60 -22 67 -5 6 -8 17 -7 25 1 7 -1 20 -4 28 -3 8 -16 56 -27
105 -12 50 -35 129 -51 178 -16 48 -29 94 -29 102 0 8 -5 15 -12 15 -6 0 -9 3
-5 6 5 5 -11 60 -30 104 -3 8 -7 18 -8 23 -2 4 -3 8 -5 10 -1 1 -3 9 -5 18 -5
28 -48 144 -57 154 -17 19 -6 21 80 17 48 -2 98 1 112 6 21 9 22 11 5 11 -16
1 -12 6 16 25 41 28 98 133 101 186 1 19 5 42 9 50 4 8 10 44 14 80 4 35 11
74 15 86 5 12 6 24 4 27 -3 3 0 16 7 29 7 12 15 38 18 57 5 26 15 39 42 55 51
29 84 58 97 83 7 12 18 28 24 35 16 17 35 48 69 113 14 28 36 67 48 87 12 20
21 38 20 40 -1 2 3 12 9 24 10 19 9 21 -11 17 -12 -2 -29 1 -37 6 -12 8 -12
14 -1 33 6 13 13 30 15 38 1 8 10 32 19 54 9 21 17 44 17 52 0 7 5 16 10 19 6
3 10 17 10 30 0 13 5 27 11 30 6 4 8 13 5 20 -2 7 -1 16 3 21 8 9 24 66 37
129 4 17 8 68 10 114 3 46 8 91 12 100 4 9 7 57 7 107 0 80 -3 96 -25 127 -34
49 -84 65 -152 47 -28 -7 -65 -14 -82 -15 -17 -1 -44 -7 -59 -14 -16 -6 -37
-11 -48 -11 -11 0 -27 -4 -37 -9 -48 -24 -115 -52 -118 -49 -2 2 3 17 11 32
19 37 19 37 -10 30 l-26 -6 3 113 c2 117 -6 266 -24 449 -5 58 -12 125 -14
150 -2 25 -6 61 -9 80 -4 19 -8 44 -9 55 -1 11 -7 38 -13 60 -15 57 -34 146
-37 175 -3 26 -30 125 -46 170 -5 14 -12 36 -15 50 -14 71 -29 120 -37 120 -4
0 -8 8 -8 17 0 21 -45 154 -72 213 -11 25 -29 70 -39 99 -11 30 -27 66 -36 80
-10 15 -28 46 -40 71 -13 25 -34 63 -48 85 -13 22 -27 47 -31 55 -4 8 -20 33
-35 55 -39 57 -99 154 -99 160 0 3 -17 29 -37 58 -20 28 -57 81 -82 117 -25
36 -64 87 -88 114 -24 26 -43 52 -43 57 0 5 -7 9 -15 9 -8 0 -15 4 -15 8 0 8
-337 352 -345 352 -3 0 -37 31 -77 69 -39 39 -75 68 -80 65 -5 -3 -24 7 -42
23 -18 15 -48 41 -66 56 -19 16 -46 35 -61 43 -16 8 -33 23 -39 34 -6 11 -20
20 -30 20 -11 0 -20 4 -20 9 0 4 -39 28 -87 52 -49 24 -100 55 -115 68 -16 14
-28 22 -28 18 0 -4 -12 -2 -27 4 -16 6 -76 10 -135 10 -90 -1 -114 2 -157 21
-28 13 -51 28 -51 34 0 19 -59 56 -115 70 -40 11 -189 33 -196 29 -4 -3 -10
-1 -14 4 -3 6 -12 8 -20 4 -8 -3 -15 0 -15 7 0 6 -5 8 -10 5 -12 -7 -18 -7
-316 0 -116 2 -214 2 -217 -2z m1784 -530 c13 -16 12 -17 -3 -4 -10 7 -18 15
-18 17 0 8 8 3 21 -13z m-986 -660 c64 -68 137 -163 174 -225 52 -88 56 -93
69 -101 6 -4 12 -16 12 -25 0 -9 14 -35 30 -56 17 -22 30 -45 30 -52 0 -6 6
-17 14 -23 7 -6 29 -42 47 -79 19 -37 37 -69 42 -70 4 -2 5 -8 1 -13 -3 -5 4
-22 15 -38 12 -16 21 -32 21 -36 0 -4 13 -35 29 -69 41 -87 75 -160 76 -166 1
-3 5 -14 9 -25 4 -11 13 -36 21 -55 7 -19 23 -61 35 -93 12 -32 23 -69 24 -82
0 -14 4 -25 7 -25 6 0 10 -15 22 -85 2 -11 7 -30 11 -42 8 -24 -11 -31 -97
-35 -27 -1 -50 -5 -53 -9 -2 -5 -20 -6 -39 -4 -19 3 -35 3 -35 0 0 -20 116
-45 229 -49 20 -1 26 -10 42 -71 10 -38 17 -70 16 -71 -1 -1 -37 -18 -80 -39
-82 -38 -137 -85 -223 -190 -54 -66 -74 -103 -74 -140 0 -13 -4 -26 -9 -29 -5
-3 -8 -17 -8 -30 l0 -24 28 26 c16 14 29 31 29 37 0 28 177 162 240 182 19 6
58 20 86 31 l50 19 12 -26 c11 -26 28 -138 24 -154 -2 -5 3 -7 10 -4 10 3 12
27 10 88 -4 114 3 122 99 122 79 0 179 -24 199 -48 7 -8 18 -15 26 -15 7 0 24
-10 38 -22 13 -13 34 -30 46 -38 35 -24 110 -104 110 -117 0 -7 3 -13 8 -13
15 0 71 -108 95 -185 14 -45 29 -114 32 -155 4 -41 12 -80 17 -87 13 -16 1
-178 -18 -250 -8 -30 -14 -63 -14 -75 0 -18 2 -19 17 -7 15 12 16 12 10 -6 -6
-18 -5 -17 12 3 66 78 112 356 82 495 -5 23 -14 74 -21 112 -11 70 -47 185
-61 195 -4 3 -11 18 -14 33 -4 15 -10 27 -14 27 -3 0 -15 17 -26 38 -21 39
-24 43 -56 82 -52 62 -66 77 -104 106 -22 17 -74 48 -115 68 -67 33 -85 37
-176 42 -56 2 -112 0 -126 -5 -25 -9 -25 -9 -27 49 l-2 59 38 6 c21 4 52 10
68 15 33 9 98 22 130 25 11 2 40 8 65 15 131 34 138 34 160 9 10 -13 19 -29
20 -36 0 -6 4 -13 9 -15 18 -6 131 -226 183 -355 7 -18 17 -33 21 -33 5 0 7
-6 4 -12 -2 -7 6 -35 18 -63 11 -27 29 -77 39 -110 11 -33 22 -64 26 -70 14
-19 22 -71 21 -130 -5 -189 -11 -267 -36 -415 -2 -14 -7 -52 -9 -85 -8 -82
-17 -165 -22 -195 -3 -14 -9 -77 -14 -140 -13 -153 -19 -208 -31 -251 -12 -47
-12 -353 0 -402 5 -21 9 -69 9 -107 0 -37 3 -73 7 -79 3 -6 6 -26 4 -44 -1
-17 1 -39 4 -47 6 -15 30 -212 42 -343 5 -52 4 -67 -6 -65 -8 2 -15 -13 -20
-37 -4 -22 -10 -53 -13 -68 -20 -111 -162 -259 -431 -452 -31 -22 -62 -46 -70
-52 -7 -7 -16 -13 -19 -13 -4 0 -29 -16 -57 -36 -28 -19 -58 -38 -67 -42 -9
-4 -35 -18 -57 -32 -21 -13 -45 -25 -52 -26 -7 -1 -19 -8 -26 -16 -21 -20
-394 -203 -437 -214 -8 -2 -59 -18 -112 -36 l-96 -33 -1 -164 c-1 -90 -3 -167
-6 -170 -2 -4 -11 -59 -20 -122 -8 -63 -19 -133 -24 -156 -4 -24 -6 -43 -3
-43 2 0 -1 -6 -7 -13 -6 -8 -8 -17 -5 -20 4 -4 -5 -22 -20 -41 -14 -19 -26
-38 -26 -41 0 -11 -28 -35 -40 -35 -12 0 -81 -39 -138 -77 -26 -17 -37 -20
-51 -11 -10 6 -18 16 -19 22 0 6 -8 31 -17 56 -9 24 -18 58 -20 75 -1 16 -8
42 -13 56 -6 14 -13 58 -16 98 -3 39 -8 76 -11 80 -5 10 22 138 33 156 4 5 7
12 8 15 2 10 25 66 46 110 12 25 45 74 72 110 28 35 43 61 34 58 -77 -30 -223
-41 -339 -26 -52 7 -57 6 -81 -20 -40 -43 -95 -164 -105 -232 -27 -193 -33
-370 -12 -370 6 0 35 -25 65 -55 31 -30 58 -55 61 -55 3 0 24 -19 46 -42 36
-37 40 -48 39 -88 -1 -65 -3 -83 -9 -100 -10 -25 -13 -43 -17 -86 -2 -23 -6
-46 -10 -52 -3 -5 -8 -29 -11 -53 -3 -24 -9 -46 -14 -49 -4 -3 -8 -12 -8 -20
0 -14 -45 -151 -63 -195 -5 -11 -11 -35 -14 -53 -6 -35 -111 -267 -134 -294
-7 -9 -15 -23 -16 -32 -1 -8 -9 -23 -17 -33 -9 -10 -33 -49 -54 -88 -21 -38
-42 -71 -47 -73 -4 -2 -8 -8 -8 -13 0 -9 -85 -128 -94 -132 -5 -2 -133 108
-231 198 -27 25 -81 72 -120 103 -38 31 -82 68 -96 82 -15 14 -54 48 -89 75
-34 28 -74 61 -89 75 -80 72 -109 98 -139 119 -21 15 -30 27 -25 36 8 13 110
127 205 229 26 28 50 59 54 69 3 9 12 17 20 17 8 0 14 4 14 10 0 5 15 25 33
44 33 34 61 68 87 106 8 12 36 45 62 73 26 29 48 56 48 61 0 4 11 17 25 28 14
11 22 24 19 30 -4 6 -3 8 3 5 9 -6 43 26 43 40 0 4 11 18 24 32 31 34 72 108
80 146 17 88 17 97 -9 140 -13 24 -52 68 -86 97 l-60 55 61 59 c33 32 80 84
103 114 23 30 64 77 91 103 39 39 47 51 35 58 -8 5 -21 9 -30 9 -9 0 -22 6
-28 14 -6 7 -25 16 -41 20 -17 3 -56 17 -88 32 -108 50 -137 61 -187 74 -27 7
-55 17 -60 21 -6 4 -29 12 -50 18 -55 13 -171 55 -225 80 -25 11 -85 34 -135
52 -49 17 -112 42 -140 56 -27 14 -97 42 -154 64 -57 22 -109 44 -116 49 -7 5
-14 7 -17 4 -6 -5 -10 10 -23 91 -7 38 -10 61 -19 148 -3 20 -7 45 -10 55 -3
9 -8 36 -11 60 -3 24 -10 52 -15 62 -6 11 -9 23 -8 27 3 14 -14 87 -27 113 -7
14 -16 43 -20 65 -4 22 -10 45 -15 50 -8 10 -34 91 -35 110 0 6 -3 12 -7 15
-4 3 -9 18 -12 33 -7 42 -27 101 -37 112 -5 5 -9 17 -9 27 0 11 -9 38 -20 60
-11 23 -20 50 -20 60 0 10 -4 18 -9 18 -5 0 -15 23 -22 50 -7 28 -16 50 -21
50 -4 0 -8 6 -8 13 0 7 -13 40 -30 72 -16 32 -30 63 -30 67 0 5 -11 26 -25 46
-14 20 -25 43 -25 51 0 22 -79 181 -90 181 -5 0 -12 9 -15 20 -6 19 -9 19 -38
-13 -35 -37 -126 -100 -170 -116 -65 -25 -175 -20 -197 8 -3 4 -25 15 -49 26
-24 10 -66 43 -95 73 -28 30 -66 70 -84 88 -33 35 -40 58 -22 69 6 3 10 15 10
26 0 20 125 159 143 159 5 0 15 6 21 14 6 7 41 25 78 40 183 72 354 -5 453
-203 14 -28 28 -51 30 -51 2 0 24 26 47 58 24 31 46 59 51 60 4 2 7 9 7 15 0
6 6 18 14 26 22 25 82 144 104 208 12 32 28 75 36 95 9 21 16 41 15 45 -1 5
-1 37 0 73 1 64 2 66 66 147 36 46 65 89 65 98 0 8 4 15 10 15 5 0 21 21 36
48 15 26 35 56 45 67 9 11 30 45 47 75 16 30 35 56 43 58 8 1 22 -10 31 -25
16 -27 17 -26 13 59 -3 85 14 165 44 201 5 7 12 29 16 50 4 20 11 40 16 42 4
3 6 12 2 20 -3 9 0 21 6 29 6 7 9 15 6 17 -3 4 3 34 21 104 3 11 7 31 10 45
11 60 16 70 51 91 21 13 40 26 43 30 7 10 226 119 239 119 6 0 19 4 29 9 21
12 131 52 156 57 10 2 44 11 75 20 62 19 209 24 301 10 122 -18 204 -53 297
-125 49 -37 113 -97 143 -132 29 -35 60 -69 67 -75 14 -12 83 -134 112 -199
10 -22 28 -60 40 -85 11 -24 21 -52 21 -62 0 -10 4 -18 10 -18 5 0 14 -18 20
-41 18 -65 30 -33 37 97 4 64 0 98 -17 160 -29 103 -126 304 -150 312 -6 2
-10 8 -10 13 0 13 -96 136 -145 184 -96 97 -223 170 -354 205 -47 12 -246 12
-271 -1 -9 -4 -36 -10 -60 -13 -25 -3 -56 -8 -70 -11 -14 -3 -40 -8 -59 -11
-19 -2 -48 -11 -65 -19 -17 -8 -53 -22 -80 -31 -63 -20 -160 -66 -164 -76 -2
-4 -8 -8 -13 -8 -12 0 -95 -60 -126 -92 -23 -23 -23 -23 -23 -1 0 20 22 39 85
74 155 84 495 319 495 342 0 4 5 7 11 7 5 0 27 13 47 29 20 16 51 36 68 46
l32 18 62 -49 c34 -27 83 -66 108 -86 26 -20 52 -37 59 -37 6 -1 13 -5 15 -9
4 -10 192 -132 203 -132 5 0 18 -8 29 -19 12 -10 39 -27 61 -38 84 -43 215
-103 225 -103 6 0 18 -4 28 -9 67 -36 257 -55 312 -33 l25 11 -27 0 c-15 1
-44 11 -65 23 -20 12 -43 23 -51 24 -8 2 -21 9 -30 18 -10 8 -21 15 -27 16 -5
1 -25 8 -43 16 -18 7 -48 16 -68 20 -20 4 -38 13 -41 21 -3 8 -11 12 -18 9 -7
-2 -36 6 -64 19 -28 14 -55 25 -59 26 -18 4 -41 13 -97 39 -33 15 -82 37 -110
50 -27 12 -68 31 -90 43 -22 11 -53 28 -70 36 -16 9 -31 19 -33 23 -2 4 -27
21 -55 40 -29 18 -54 35 -57 39 -3 3 -25 19 -49 34 -41 26 -43 29 -26 41 10 7
21 11 25 9 4 -3 15 4 25 15 10 11 23 20 28 20 6 0 26 12 46 28 20 15 44 32 53
37 58 33 149 93 184 122 23 18 45 33 49 33 10 0 109 71 113 82 2 4 10 8 18 8
8 0 14 4 14 9 0 5 24 25 53 46 99 68 118 84 138 109 11 14 26 26 33 26 7 0 37
24 67 53 30 28 66 60 82 70 15 9 27 23 27 30 0 7 10 17 23 23 12 7 23 12 24
13 2 0 23 -20 48 -46z m696 -564 c66 -67 119 -124 119 -128 1 -3 18 -19 39
-36 21 -16 53 -50 72 -75 18 -25 46 -57 61 -73 16 -15 29 -32 31 -38 1 -7 17
-28 34 -48 18 -20 33 -42 33 -48 0 -7 4 -13 9 -13 5 0 15 -13 22 -28 8 -16 24
-42 36 -58 43 -57 113 -166 115 -182 3 -16 -26 -26 -172 -61 -39 -10 -240 -24
-240 -18 0 17 -57 276 -74 332 -18 64 -31 102 -37 110 -4 6 -9 24 -12 40 -5
33 -34 122 -45 139 -4 6 -7 18 -7 26 0 18 -45 131 -57 145 -4 5 -8 15 -8 23 0
8 -11 36 -25 63 -13 27 -22 49 -18 49 3 0 59 -55 124 -121z m-4707 -289 c58
-28 89 -78 94 -152 6 -75 -15 -125 -77 -191 -74 -77 -153 -98 -227 -58 -64 34
-84 109 -58 210 18 69 75 169 110 191 39 25 108 25 158 0z m1491 -311 c22 -22
48 -48 58 -57 9 -9 17 -26 17 -39 0 -12 5 -25 10 -28 19 -12 6 -132 -22 -195
-32 -73 -57 -110 -109 -162 -54 -52 -107 -95 -119 -96 -3 -1 -12 -3 -20 -6
-53 -20 -145 -46 -161 -46 -10 0 -21 5 -24 10 -3 6 -17 10 -31 10 -27 0 -91
37 -124 72 -28 29 -80 131 -80 156 0 17 43 60 115 114 17 12 32 25 35 28 19
20 122 94 150 107 8 4 21 15 28 25 7 10 19 18 26 18 8 0 19 7 26 15 16 19 97
75 113 78 7 1 14 5 17 8 6 7 43 28 50 29 3 0 23 -18 45 -41z m-1240 -36 c3
-21 15 -78 27 -128 22 -92 31 -276 15 -292 -10 -10 -57 45 -57 68 0 8 -4 19
-9 25 -27 31 -45 213 -27 289 4 17 8 35 9 40 11 45 35 44 42 -2z m-290 -434
c20 -8 43 -29 61 -58 27 -43 29 -52 28 -143 -1 -130 -24 -207 -73 -246 -55
-44 -76 -53 -136 -54 -48 -1 -59 2 -86 28 -57 53 -75 134 -44 194 8 16 17 50
20 75 12 96 52 161 120 198 36 19 68 21 110 6z m1631 -259 c61 -21 65 -24 148
-105 103 -102 126 -143 101 -181 -30 -47 -150 -190 -200 -239 -44 -43 -50 -54
-50 -90 0 -22 -4 -40 -10 -40 -5 0 -14 -3 -20 -7 -5 -3 -50 -5 -100 -4 -64 1
-102 7 -132 21 -24 11 -43 23 -43 27 0 5 -5 8 -10 8 -16 0 -91 81 -102 110 -5
14 -12 36 -15 50 -2 13 -8 29 -13 35 -13 16 -4 207 12 245 21 49 107 133 168
163 78 38 168 40 266 7z m-990 -381 c41 -19 75 -56 103 -111 24 -48 9 -137
-34 -202 -64 -97 -169 -169 -249 -170 -37 -1 -39 1 -54 44 -8 25 -17 52 -20
60 -28 83 -20 220 13 220 15 0 48 60 59 105 15 61 32 75 88 75 32 0 68 -8 94
-21z m779 -1479 c4 -16 11 -32 16 -35 5 -4 9 -16 9 -27 0 -21 23 -106 44 -163
13 -36 12 -35 29 -105 8 -30 16 -62 20 -70 3 -8 10 -42 16 -75 5 -33 15 -80
21 -104 6 -24 9 -50 6 -58 -3 -7 -2 -13 2 -13 4 0 8 -10 8 -22 1 -13 4 -39 8
-58 6 -38 13 -88 22 -159 3 -25 7 -48 10 -52 4 -7 13 -111 16 -180 1 -28 -63
-170 -73 -163 -4 2 -5 31 -3 64 2 33 0 80 -5 105 -5 25 -5 48 0 51 4 2 3 17
-3 32 -6 15 -12 47 -14 72 -2 25 -6 65 -9 90 -2 25 -6 68 -9 95 -2 28 -6 57
-9 65 -3 8 -8 51 -11 95 -8 111 -18 179 -31 225 -3 8 -7 35 -11 60 -3 25 -7
54 -9 65 -1 11 -3 20 -4 20 -1 0 -4 18 -6 39 -3 22 -9 44 -15 50 -5 5 -10 24
-10 42 0 17 -7 51 -15 74 -17 48 -20 84 -6 75 5 -3 12 -19 16 -35z m520 -1969
c8 -15 143 -86 200 -107 28 -9 61 -25 75 -35 14 -9 39 -19 55 -22 17 -3 39 -8
50 -10 96 -21 305 -25 305 -5 0 4 8 8 18 8 21 0 109 33 172 65 l49 25 -10 -29
c-6 -15 -19 -38 -30 -49 -10 -12 -19 -24 -19 -27 0 -5 -24 -34 -65 -80 -11
-13 -33 -39 -50 -59 -45 -53 -82 -95 -162 -184 -40 -43 -70 -82 -66 -85 3 -4
10 -4 15 -1 5 3 37 7 71 9 34 1 74 6 89 10 26 7 26 6 19 -27 -21 -90 -55 -204
-62 -213 -5 -5 -9 -17 -9 -27 0 -9 -8 -22 -17 -27 -10 -6 -15 -11 -11 -11 4 0
-1 -16 -12 -35 -11 -19 -29 -52 -41 -72 -11 -21 -32 -49 -45 -64 -13 -14 -24
-30 -24 -35 0 -6 -11 -17 -25 -24 -13 -7 -27 -20 -30 -29 -3 -9 -17 -25 -32
-35 -16 -10 -40 -33 -54 -50 l-27 -31 78 -70 c172 -157 226 -202 294 -253 89
-66 126 -96 185 -150 25 -24 65 -57 89 -73 24 -17 42 -32 40 -34 -5 -5 -221
52 -259 69 -19 8 -83 33 -144 56 -60 23 -119 46 -130 51 -25 11 -142 55 -214
80 -30 10 -59 23 -65 27 -6 5 -21 9 -33 10 -12 0 -46 12 -77 26 -31 14 -66 27
-78 30 -13 2 -36 9 -53 16 -16 6 -31 11 -33 11 -9 -4 -52 13 -52 20 0 5 -6 9
-14 9 -8 0 -31 9 -53 20 -59 31 -207 88 -247 95 -20 4 -36 11 -36 16 0 5 -7 9
-15 9 -8 0 -48 15 -88 34 -39 19 -81 37 -93 40 -11 4 -30 15 -41 25 -18 17
-19 25 -11 72 18 116 25 146 59 236 5 12 25 29 45 38 20 8 50 30 65 48 25 29
36 34 76 36 114 4 179 46 259 165 19 28 38 56 44 63 5 7 10 19 10 28 0 8 3 15
8 15 8 0 50 87 55 116 2 10 14 53 27 94 13 41 24 86 26 100 3 32 14 116 20
158 5 31 17 41 29 23z m-320 -168 c-4 -27 -11 -52 -16 -57 -5 -6 -9 -17 -9
-26 0 -9 -9 -33 -20 -55 -11 -22 -20 -44 -20 -50 0 -14 -40 -58 -47 -51 -3 3
-2 13 2 23 5 10 9 27 11 38 6 49 11 60 78 188 11 20 22 37 24 37 2 0 1 -21 -3
-47z m2235 -632 c0 -4 16 -23 36 -44 l37 -37 -8 -82 c-4 -46 -12 -101 -19
-123 -7 -22 -14 -50 -14 -63 -1 -23 -21 -85 -49 -152 -15 -34 -31 -70 -87
-190 -44 -93 -100 -193 -139 -245 -20 -27 -41 -54 -45 -60 -4 -5 -14 -23 -22
-38 -8 -16 -22 -33 -32 -38 -10 -5 -18 -15 -18 -22 0 -7 -18 -32 -40 -55 -22
-24 -40 -49 -40 -55 0 -7 -14 -28 -31 -47 -17 -19 -34 -41 -39 -49 -6 -12 -15
-9 -47 17 -66 52 -68 58 -34 78 17 10 31 21 31 25 0 3 10 17 23 31 69 77 87
98 87 103 0 4 15 26 33 49 17 24 39 54 47 66 8 12 20 28 25 34 13 16 32 49 72
125 18 36 36 67 40 70 19 14 92 185 109 254 8 34 19 71 24 82 16 37 51 208 47
227 -3 10 -1 18 3 18 5 0 9 8 9 18 0 9 3 35 6 57 3 22 7 45 7 52 1 11 28 6 28
-6z m272 -266 c35 -49 46 -63 66 -83 12 -13 22 -25 22 -28 0 -6 7 -14 53 -69
18 -22 48 -65 66 -95 19 -30 53 -81 77 -112 37 -49 42 -61 33 -80 -22 -49 -38
-71 -65 -88 -16 -9 -41 -29 -56 -42 -22 -22 -132 -103 -195 -145 -10 -7 -36
-25 -58 -40 -22 -14 -65 -43 -95 -64 -31 -20 -94 -57 -140 -81 -47 -25 -110
-58 -140 -75 -72 -41 -122 -65 -197 -99 -53 -23 -64 -25 -78 -14 -15 12 -14
15 11 28 27 14 261 248 299 298 11 15 34 42 50 60 38 42 80 97 80 104 0 3 15
26 33 52 17 26 32 54 32 63 0 9 8 29 19 43 30 43 62 120 76 186 8 33 19 78 25
99 6 22 9 45 6 52 -2 7 -2 16 1 19 7 7 10 36 13 114 l2 54 26 -24 c15 -13 30
-27 34 -33z m-2853 -319 c6 -8 26 -20 44 -27 18 -7 44 -21 60 -31 15 -11 27
-16 27 -11 0 4 4 3 8 -2 20 -28 327 -162 445 -195 26 -7 47 -17 47 -21 0 -5 3
-8 8 -7 4 1 27 -5 52 -14 25 -9 72 -25 105 -34 33 -10 71 -24 85 -31 14 -7 30
-13 37 -13 6 0 24 -5 40 -11 15 -7 40 -13 55 -15 14 -1 34 -7 45 -12 25 -14
203 -62 203 -55 0 3 7 0 15 -7 8 -6 18 -9 23 -6 5 3 47 -6 93 -19 46 -14 98
-29 114 -34 17 -5 53 -13 80 -17 28 -4 57 -9 65 -11 8 -3 60 -11 115 -19 92
-13 102 -17 135 -49 l35 -35 -31 0 c-17 0 -56 5 -85 11 -30 6 -74 12 -99 14
-25 1 -53 6 -63 10 -10 4 -21 5 -24 1 -3 -3 -12 -1 -20 5 -7 6 -13 9 -13 6 0
-3 -42 6 -92 19 -112 30 -113 30 -213 49 -44 9 -91 20 -104 26 -13 5 -49 12
-79 15 -31 3 -60 8 -66 11 -5 4 -19 8 -30 9 -12 1 -46 8 -76 17 -30 8 -75 18
-100 22 -25 4 -49 11 -55 15 -8 6 -66 21 -100 25 -15 2 -98 25 -115 32 -8 3
-26 8 -39 10 -13 2 -33 11 -45 19 -13 8 -25 12 -28 9 -7 -7 -51 12 -113 50
-28 16 -67 39 -88 49 -20 11 -37 23 -37 27 0 4 -20 19 -45 34 -53 30 -185 159
-185 180 0 7 -6 16 -12 18 -8 4 -9 6 -2 6 6 1 17 -5 23 -13z m4305 -508 c-11
-34 -8 -132 6 -175 16 -50 62 -143 71 -143 4 0 11 -15 15 -32 3 -18 17 -46 29
-63 13 -16 26 -40 30 -52 3 -13 11 -23 16 -23 5 0 9 -8 9 -19 0 -10 11 -44 25
-75 30 -67 18 -73 -52 -26 -24 17 -48 30 -52 30 -7 0 -55 34 -97 69 -6 5 -20
12 -32 15 -12 4 -22 11 -22 15 0 5 -19 21 -42 36 -60 40 -142 124 -162 168
-34 70 -7 146 69 194 20 13 187 102 193 102 2 1 0 -9 -4 -21z"/>
<path d="M3615 10049 c-32 -9 -105 -69 -105 -86 0 -6 -7 -17 -16 -24 -22 -18
-104 -145 -104 -160 0 -7 -7 -20 -15 -29 -15 -16 -55 -158 -70 -245 -4 -22 -9
-124 -12 -228 -4 -164 -3 -186 10 -181 9 3 24 1 35 -5 18 -10 20 -5 26 77 8
107 8 108 26 154 16 44 21 46 109 54 l68 5 -5 -30 c-7 -47 5 -93 32 -124 25
-29 38 -25 32 9 -2 11 -7 45 -11 77 l-7 57 40 0 c55 0 67 -21 48 -84 -8 -26
-15 -50 -16 -54 -2 -4 -5 -13 -7 -19 -3 -7 -2 -20 1 -29 6 -15 8 -15 26 1 11
10 20 24 20 32 0 7 4 13 8 13 8 0 14 38 16 93 1 25 4 27 31 21 44 -9 128 -49
147 -71 52 -57 4 -377 -82 -554 -16 -34 -28 -64 -26 -66 12 -13 128 153 152
217 7 19 22 60 34 90 22 57 47 215 49 310 l2 55 -48 27 c-26 15 -69 48 -95 74
l-48 47 0 -34 c-1 -77 -52 -87 -112 -21 -29 33 -45 63 -79 150 -18 45 -11 91
18 120 15 15 26 32 24 37 -26 84 -31 127 -21 192 6 37 13 78 16 89 4 17 -2 25
-27 38 -18 9 -33 16 -33 15 -1 0 -14 -5 -31 -10z"/>
<path d="M5440 9853 c-17 -26 -30 -52 -30 -59 0 -7 -4 -14 -9 -16 -9 -3 -81
-225 -81 -251 0 -9 -5 -19 -10 -22 -6 -4 -8 -10 -5 -14 2 -5 -2 -41 -9 -82 -8
-40 -12 -77 -10 -81 12 -19 24 8 44 100 12 53 26 102 30 107 3 6 12 36 19 67
7 32 16 60 21 63 4 3 11 21 14 41 4 19 16 50 26 67 11 18 22 39 26 47 3 8 10
23 15 32 5 10 9 25 9 33 0 28 -20 15 -50 -32z"/>
<path d="M5684 9436 c-27 -19 -62 -50 -78 -70 -30 -40 -72 -127 -80 -166 -3
-14 -12 -48 -19 -77 -8 -28 -12 -54 -9 -57 3 -4 0 -16 -6 -29 -14 -27 -32
-169 -32 -253 l0 -61 41 -7 c48 -8 59 -2 59 28 0 33 51 127 80 147 14 10 36
19 50 21 23 3 25 -1 28 -37 4 -72 12 -103 28 -109 13 -5 14 5 8 69 -4 41 -5
75 -2 75 3 0 19 -5 37 -11 35 -12 37 -21 16 -99 -8 -30 -15 -56 -15 -57 0 -1
6 0 14 3 17 7 46 75 46 108 0 13 -7 30 -16 37 -51 42 -76 199 -40 254 11 17
14 30 7 42 -18 34 -29 128 -24 206 6 76 5 77 -18 77 -13 0 -47 -15 -75 -34z"/>
<path d="M5961 9444 c0 -11 3 -14 6 -6 3 7 2 16 -1 19 -3 4 -6 -2 -5 -13z"/>
<path d="M5930 8905 c0 -17 -5 -36 -10 -41 -8 -8 1 -19 29 -37 43 -28 51 -50
48 -130 -1 -27 1 -53 4 -59 3 -5 0 -39 -8 -75 -7 -36 -11 -68 -9 -70 2 -3 -4
-29 -14 -58 -10 -30 -21 -70 -24 -90 -10 -60 -26 -77 -66 -70 -19 4 -37 11
-40 15 -3 5 -17 11 -31 15 -36 9 -47 -19 -16 -39 58 -38 310 -76 342 -52 25
18 9 25 -76 31 -93 8 -113 13 -101 28 22 27 83 230 97 322 23 155 21 181 -17
218 -18 18 -50 52 -70 77 l-38 45 0 -30z"/>
<path d="M3340 8842 c0 -5 10 -17 22 -28 20 -18 21 -18 15 -1 -4 10 -7 23 -7
28 0 5 -7 9 -15 9 -8 0 -15 -4 -15 -8z"/>
<path d="M3577 8647 c-18 -48 540 -172 568 -127 4 6 11 8 16 5 5 -4 9 -2 9 3
0 12 -35 22 -78 22 -65 0 -384 66 -417 86 -35 22 -91 28 -98 11z"/>
<path d="M5237 8347 c-3 -8 -1 -36 5 -63 5 -27 11 -60 13 -74 2 -14 13 -47 26
-75 12 -27 24 -63 28 -79 10 -45 28 -42 42 6 15 54 14 76 -4 97 -8 9 -27 41
-42 71 -15 30 -31 63 -36 72 -5 10 -9 24 -9 32 0 20 -17 29 -23 13z"/>
<path d="M4014 7722 c-16 -36 -29 -70 -30 -76 0 -6 -4 -33 -7 -61 -16 -111 -9
-314 12 -339 6 -7 8 -15 5 -19 -11 -10 55 -247 68 -247 5 0 7 -4 4 -8 -3 -5 6
-25 19 -45 14 -20 25 -39 25 -42 0 -4 6 -12 13 -20 6 -7 26 -30 42 -51 42 -52
144 -154 156 -154 5 0 9 -6 9 -13 0 -14 50 -47 73 -47 8 0 17 -7 21 -15 3 -8
14 -15 25 -15 11 0 43 -9 71 -20 45 -18 67 -19 193 -15 78 2 162 7 187 10 60
8 174 53 213 84 9 8 17 11 17 7 0 -7 82 33 90 44 3 4 19 14 35 23 40 22 115
93 151 142 16 22 42 54 59 71 35 36 56 77 79 151 22 70 20 86 -9 122 -28 32
-39 33 -154 11 -77 -14 -367 12 -417 38 -11 5 -43 15 -72 22 -49 11 -111 36
-157 62 -11 7 -56 32 -100 56 -44 24 -82 47 -85 51 -3 3 -31 19 -63 35 -51 26
-168 104 -206 137 -8 7 -37 28 -65 48 -28 19 -58 44 -67 55 -80 101 -97 103
-135 18z"/>
<path d="M17015 10713 c-50 -10 -132 -37 -149 -49 -11 -7 -44 -21 -75 -31 -31
-9 -62 -23 -69 -30 -8 -7 -18 -11 -23 -8 -5 4 -9 2 -9 -3 0 -5 -20 -17 -45
-28 -25 -10 -45 -22 -45 -26 0 -4 -4 -8 -9 -8 -17 0 -119 -65 -157 -99 -45
-41 -37 -53 11 -16 38 29 286 155 304 155 6 0 11 3 11 8 0 7 88 43 120 48 8 2
23 7 35 12 11 5 54 19 95 32 41 13 82 29 90 37 12 11 8 13 -25 12 -22 -1 -49
-3 -60 -6z"/>
<path d="M13470 10592 c0 -5 -11 -22 -25 -38 -14 -16 -42 -54 -62 -84 -21 -30
-43 -61 -51 -69 -7 -7 -23 -34 -36 -60 -13 -25 -35 -68 -50 -96 -50 -92 -86
-219 -86 -301 0 -42 5 -85 12 -97 6 -12 12 -31 13 -42 5 -39 78 -241 120 -330
51 -109 110 -250 110 -267 0 -3 3 -10 8 -14 4 -4 7 -16 7 -26 0 -10 5 -18 10
-18 6 0 10 -6 10 -12 0 -7 11 -26 25 -43 l25 -30 -6 30 c-4 17 -15 50 -26 74
-31 73 -77 324 -93 501 -1 19 -6 72 -10 116 -5 56 -4 84 4 88 6 4 11 19 11 33
0 30 29 95 47 106 7 4 13 16 13 26 0 10 9 26 20 36 11 10 20 24 20 32 0 7 4
13 9 13 5 0 12 8 15 18 7 22 81 102 94 102 17 0 277 -68 307 -81 17 -6 41 -14
55 -16 14 -2 29 -8 35 -14 5 -5 17 -9 28 -9 10 0 38 -9 63 -20 35 -16 44 -26
44 -45 0 -14 4 -25 8 -25 5 0 9 -6 9 -12 0 -7 4 -42 8 -78 4 -36 7 -100 7
-142 -1 -75 0 -78 27 -94 36 -21 54 -73 48 -139 -5 -53 -8 -63 -40 -135 -11
-25 -20 -51 -20 -57 0 -7 -8 -15 -18 -18 -9 -3 -20 -12 -23 -20 -3 -8 -12 -15
-21 -15 -8 0 -15 -4 -15 -9 0 -15 -74 -1 -87 16 -7 9 -13 12 -13 6 0 -7 -16
-29 -36 -50 -66 -70 -75 -83 -63 -104 5 -11 7 -23 4 -28 -3 -5 -1 -11 5 -13 5
-1 22 -46 36 -98 14 -52 30 -99 35 -104 5 -6 9 -20 9 -31 0 -12 3 -25 7 -29 4
-3 8 -16 10 -28 2 -11 10 -36 18 -54 8 -19 22 -49 30 -68 8 -19 15 -39 15 -45
0 -25 154 -340 193 -395 47 -66 164 -174 198 -182 31 -7 46 -8 113 -5 25 1
126 104 126 128 0 9 -10 27 -21 39 -35 37 -27 175 14 248 28 51 82 84 108 68
10 -6 20 -8 23 -4 8 13 18 114 20 217 2 56 5 106 8 111 3 5 4 17 3 27 -2 9 -6
77 -9 150 -7 137 -11 178 -22 237 -4 19 -8 42 -10 50 -2 8 -8 44 -15 80 -7 36
-16 70 -20 75 -7 10 -39 117 -39 131 0 4 10 -1 21 -12 22 -19 22 -19 14 6 -10
32 -45 93 -118 203 -58 88 -248 287 -274 287 -7 0 -13 5 -13 10 0 6 -5 10 -11
10 -6 0 -33 18 -59 40 -26 22 -52 40 -57 40 -6 0 -22 11 -36 24 -14 13 -59 41
-99 61 -40 20 -93 52 -117 71 -24 19 -50 34 -56 34 -7 0 -20 9 -30 20 -10 11
-21 18 -24 16 -4 -3 -29 6 -56 20 -28 13 -55 24 -61 24 -6 0 -25 7 -42 15 -17
9 -41 18 -53 20 -13 3 -27 9 -33 15 -5 5 -22 10 -37 10 -15 0 -40 7 -55 15
-32 16 -74 20 -74 7z m942 -1502 c12 -92 11 -159 -2 -175 -15 -18 -59 -20 -64
-2 -2 6 -16 56 -32 110 -15 54 -31 100 -36 103 -4 3 -8 13 -8 23 0 16 5 17 68
7 l67 -11 7 -55z m-98 -301 c18 -21 26 -43 27 -72 0 -23 2 -51 4 -62 24 -149
27 -350 6 -406 -11 -31 -34 0 -94 122 -76 154 -84 197 -56 311 21 88 48 138
74 138 7 0 25 -14 39 -31z m145 -61 c19 -50 76 -313 72 -335 -1 -7 2 -13 6
-13 12 0 10 -107 -3 -120 -18 -18 -43 12 -54 65 -37 183 -66 398 -55 414 10
18 25 13 34 -11z"/>
<path d="M13910 10562 c0 -5 18 -17 40 -27 22 -10 47 -26 56 -36 10 -11 21
-19 26 -19 9 0 229 -145 305 -202 24 -17 46 -29 49 -25 7 6 -76 97 -89 97 -5
0 -27 15 -50 33 -52 41 -194 126 -268 161 -61 28 -69 30 -69 18z"/>
<path d="M14030 8115 c0 -22 132 -64 222 -70 25 -1 50 -5 55 -8 4 -3 33 -5 63
-5 46 0 51 1 30 10 -14 5 -36 11 -50 13 -42 5 -171 33 -247 54 -54 14 -73 15
-73 6z"/>
<path d="M15106 7878 c-25 -96 -68 -211 -107 -287 -27 -51 -49 -98 -49 -103 0
-14 49 19 77 51 53 61 130 351 93 351 -6 0 -12 -6 -14 -12z"/>
<path d="M16860 7842 c0 -6 8 -13 18 -16 26 -8 202 -29 240 -29 17 0 32 -2 32
-6 0 -6 242 -7 390 -2 65 3 70 4 40 11 -19 5 -45 6 -57 3 -13 -3 -23 -1 -23 5
0 6 -45 11 -118 11 -64 1 -131 4 -147 7 -17 3 -64 7 -105 8 -41 2 -119 6 -172
10 -65 5 -98 4 -98 -2z"/>
<path d="M10870 7822 c-14 -2 -31 -8 -37 -14 -7 -6 -19 -8 -27 -5 -8 3 -16 3
-18 -1 -2 -4 -34 -29 -73 -55 -188 -128 -304 -283 -338 -446 -13 -62 -13 -77
-2 -88 18 -18 35 -17 35 3 0 17 36 85 86 159 64 97 148 161 314 241 l75 36 70
-17 c39 -9 111 -31 160 -49 l90 -32 0 -99 c0 -55 4 -105 8 -112 4 -7 10 -41
14 -76 7 -80 -8 -129 -49 -159 -28 -19 -36 -20 -81 -11 -48 10 -51 9 -86 -21
-20 -17 -39 -35 -43 -41 -5 -6 -8 -6 -8 -1 0 6 -3 6 -9 0 -6 -5 -5 -30 4 -64
24 -95 34 -126 62 -176 14 -27 35 -65 45 -84 10 -19 29 -47 43 -62 14 -14 25
-29 25 -32 0 -15 128 -130 158 -143 35 -15 71 -7 154 33 l37 17 -40 29 c-22
16 -45 41 -50 56 -10 24 -12 25 -18 8 -10 -26 -16 -13 -29 54 -19 94 -19 155
-2 155 16 0 27 -50 30 -140 l2 -50 8 46 c12 68 34 96 82 104 33 6 50 2 98 -23
l58 -29 16 76 c33 149 35 152 32 59 -3 -92 3 -119 22 -95 29 34 68 327 59 447
-4 64 -12 93 -37 142 -54 103 -189 221 -323 283 -123 56 -167 75 -174 75 -3 0
-14 7 -23 15 -9 8 -25 16 -37 18 -12 1 -27 8 -35 14 -7 6 -24 13 -38 16 -14 3
-45 13 -69 22 -47 17 -101 24 -141 17z m410 -953 c18 -33 -12 -278 -35 -286
-11 -3 -48 63 -63 112 -5 17 -5 45 0 65 16 67 32 115 40 126 12 16 46 6 58
-17z"/>
<path d="M10686 7805 c-69 -36 -211 -183 -194 -201 3 -2 31 22 64 54 32 32 85
78 116 101 32 24 55 47 52 52 -7 11 -4 12 -38 -6z"/>
<path d="M9800 7550 c0 -5 12 -36 27 -67 36 -79 40 -91 54 -143 6 -25 14 -52
16 -60 3 -8 7 -26 9 -39 3 -22 12 -55 50 -185 8 -26 14 -58 14 -70 0 -11 4
-27 9 -35 12 -19 21 13 16 54 -3 17 -6 50 -9 75 -9 86 -18 125 -46 200 -16 41
-31 86 -35 100 -17 57 -79 180 -91 180 -8 0 -14 -4 -14 -10z"/>
<path d="M9535 7485 c61 -31 120 -66 133 -78 17 -16 25 -18 34 -9 10 10 6 18
-17 37 -47 37 -175 97 -220 102 -35 5 -26 -2 70 -52z"/>
<path d="M11180 6408 c-62 -19 -116 -30 -225 -44 -39 -5 -46 -8 -30 -15 40
-16 153 -9 245 15 86 22 116 39 104 58 -7 11 -20 9 -94 -14z"/>
<path d="M10000 6364 c-6 -14 -10 -35 -10 -47 0 -12 -11 -48 -25 -81 -19 -47
-21 -62 -12 -77 20 -31 35 -20 56 41 18 50 27 190 12 190 -6 0 -16 -12 -21
-26z"/>
<path d="M9627 6233 c-11 -11 -139 -32 -197 -33 -30 0 -63 -7 -73 -14 -16 -13
-16 -14 5 -20 60 -16 225 -1 291 25 34 14 37 49 4 49 -13 0 -27 -3 -30 -7z"/>
<path d="M13900 6014 c0 -11 9 -63 20 -115 10 -52 22 -110 25 -129 6 -36 40
-190 50 -225 3 -11 12 -60 20 -110 8 -49 22 -119 30 -155 9 -36 17 -77 18 -92
1 -15 6 -30 10 -34 4 -4 7 -21 7 -38 0 -17 5 -47 10 -66 6 -19 12 -51 15 -70
7 -55 17 -94 25 -105 4 -5 15 -44 24 -85 9 -41 31 -120 48 -174 17 -55 32
-109 33 -120 1 -12 3 -21 4 -21 3 0 8 -18 13 -45 2 -8 7 -21 12 -28 4 -7 5
-16 2 -19 -3 -3 0 -15 6 -27 6 -11 15 -34 19 -51 4 -16 35 -109 68 -205 34
-96 61 -182 61 -190 0 -8 12 -40 26 -70 37 -77 41 -88 60 -155 9 -33 23 -72
30 -87 8 -15 21 -89 29 -165 14 -137 14 -137 11 -40 -2 63 0 94 6 85 6 -8 6 0
1 22 -9 41 -9 568 1 750 12 229 57 550 78 550 5 0 7 -4 4 -8 -3 -5 4 -25 14
-45 11 -21 20 -38 19 -39 -1 -6 15 -46 42 -106 16 -34 29 -64 29 -67 0 -6 67
-152 91 -196 10 -20 16 -38 14 -41 -3 -3 1 -11 10 -18 8 -7 15 -16 15 -21 0
-5 11 -27 25 -49 14 -22 22 -40 19 -40 -4 0 0 -8 8 -17 20 -24 145 -280 154
-315 3 -16 10 -28 15 -28 5 0 9 -8 9 -17 0 -21 23 -90 33 -99 4 -4 7 -16 7
-26 0 -10 4 -26 9 -36 11 -19 41 -116 47 -147 2 -11 13 -54 25 -95 12 -41 28
-108 35 -148 8 -40 16 -77 19 -82 6 -9 11 -45 20 -120 2 -19 8 -54 13 -76 9
-38 7 -44 -20 -73 -16 -17 -25 -31 -19 -31 5 0 13 5 16 10 3 6 12 10 20 10 14
0 26 -52 30 -130 1 -25 7 -88 13 -140 18 -155 16 -214 -11 -247 -46 -57 -50
-67 -15 -34 l36 33 5 -28 c4 -26 4 -25 6 7 1 33 38 90 119 184 27 31 75 97 91
125 8 14 31 54 51 90 57 102 64 115 73 121 5 3 8 10 8 15 -1 5 5 23 13 39 8
17 22 48 32 70 9 22 41 89 71 150 29 60 53 114 53 120 0 6 9 29 19 51 11 23
22 54 25 70 2 16 5 29 6 29 0 0 23 86 50 190 26 105 49 188 50 185 33 -103 27
-459 -14 -746 -7 -54 -14 -108 -14 -119 -1 -71 -26 -259 -44 -328 -20 -78 0
-44 32 55 18 57 61 162 96 233 35 72 66 144 70 160 4 17 11 35 16 41 4 7 15
36 22 65 8 30 20 68 27 84 6 17 13 37 14 45 2 8 12 42 24 75 30 83 82 300 85
350 1 11 4 22 8 25 4 3 9 22 12 43 2 20 7 40 10 45 3 5 7 24 10 43 2 19 9 53
15 75 6 23 13 61 16 85 3 24 7 64 10 88 5 41 3 43 -18 38 -34 -8 -143 -25
-237 -37 -227 -30 -515 -43 -593 -27 -27 6 -37 5 -32 -2 22 -36 -74 20 -176
103 -9 8 -23 17 -31 22 -38 22 -180 155 -373 350 -284 287 -341 347 -425 453
-14 18 -34 42 -45 54 -11 12 -32 38 -46 57 -15 19 -37 46 -49 60 -12 14 -29
39 -37 55 -9 17 -31 48 -49 71 -19 23 -34 44 -34 48 0 9 -43 70 -52 74 -5 2
-8 8 -8 12 0 5 -30 55 -67 111 -38 56 -67 105 -67 108 1 3 -9 18 -21 33 -13
15 -46 73 -75 130 -51 100 -84 162 -108 203 -11 20 -11 20 -12 -1z"/>
<path d="M14860 5939 c0 -21 120 -129 176 -159 65 -34 144 -52 199 -44 22 3
53 7 69 9 41 6 125 49 172 89 l41 35 94 -30 c52 -16 122 -39 156 -50 71 -23
254 -38 348 -27 124 14 213 43 302 100 80 52 64 62 -39 24 -79 -30 -125 -36
-293 -37 -153 0 -304 21 -529 75 l-69 17 -28 -34 c-38 -46 -140 -95 -213 -102
-43 -4 -79 0 -135 16 -42 11 -80 25 -85 30 -6 5 -17 9 -25 9 -9 0 -42 20 -73
45 -62 48 -68 51 -68 34z"/>
<path d="M10527 5648 c-107 -52 -238 -95 -322 -105 -27 -4 -91 -6 -142 -6 -84
1 -93 0 -99 -19 -11 -36 5 -82 47 -131 38 -44 149 -137 164 -137 4 0 21 -10
38 -22 27 -19 44 -22 139 -23 59 0 110 -4 114 -8 12 -11 24 -8 24 7 0 9 15 14
52 15 30 0 58 7 68 16 9 8 19 12 23 9 8 -9 99 86 117 122 8 16 19 35 24 42 6
8 11 23 13 34 2 12 10 26 19 32 21 16 14 115 -9 127 -8 5 -13 17 -10 27 3 13
-6 24 -31 37 -20 11 -36 23 -36 27 0 5 -20 7 -45 6 -31 -1 -77 -17 -148 -50z"/>
<path d="M9330 4926 c0 -24 143 -237 226 -336 63 -77 176 -190 189 -190 3 0
21 -11 39 -25 18 -14 36 -25 40 -25 5 0 20 -9 35 -20 16 -10 43 -22 62 -25 33
-6 33 -5 12 10 -13 9 -25 31 -29 53 -3 20 -13 61 -21 90 -8 29 -12 59 -9 67 3
8 1 17 -5 20 -5 4 -9 12 -7 18 4 20 -13 139 -19 134 -3 -3 -28 4 -57 17 -28
12 -71 28 -96 36 -25 7 -57 22 -72 32 -14 10 -32 18 -40 18 -19 0 -156 67
-205 102 -24 16 -43 27 -43 24z"/>
<path d="M17860 4552 c-19 -9 -36 -17 -38 -18 -2 -1 0 -18 4 -39 l6 -36 35 51
c19 29 33 53 31 55 -2 1 -19 -5 -38 -13z"/>
<path d="M13816 3532 c-2 -1 -16 -5 -31 -8 -52 -9 -205 -74 -267 -113 -35 -22
-82 -49 -105 -61 -24 -12 -43 -26 -43 -31 0 -5 -12 -15 -27 -23 -16 -8 -75
-61 -133 -118 -174 -172 -248 -266 -317 -400 -17 -34 -27 -36 -18 -5 10 39 23
88 56 217 18 69 36 132 40 140 11 22 31 78 30 84 0 3 9 27 20 52 11 26 22 70
25 98 l4 51 -28 -60 c-16 -33 -44 -98 -62 -145 -18 -47 -37 -89 -41 -95 -4 -5
-12 -30 -18 -55 -7 -25 -16 -54 -20 -65 -41 -95 -48 -129 -57 -278 -5 -72 -3
-92 11 -113 13 -20 14 -31 6 -52 -17 -43 -22 -145 -26 -489 -1 -177 -6 -327
-11 -334 -4 -8 -9 -41 -10 -74 -2 -33 -3 -60 -4 -60 -2 0 -5 -35 -15 -150 -2
-33 -7 -89 -10 -125 -3 -36 -7 -94 -9 -130 -1 -36 -9 -78 -15 -95 -7 -16 -17
-52 -21 -80 -12 -72 -46 -210 -55 -225 -6 -10 -3 -12 10 -7 10 4 37 12 61 18
25 6 46 15 49 19 3 4 7 59 11 121 3 63 9 134 15 159 5 25 12 97 15 160 8 172
10 192 18 235 3 22 9 74 11 115 3 41 7 93 10 115 2 22 7 69 10 105 4 58 47
428 60 520 4 30 -2 44 -36 89 l-41 54 20 61 c13 37 17 65 11 71 -18 18 -8 46
29 83 20 20 54 55 74 77 37 40 119 115 126 115 2 0 18 11 35 24 135 100 502
234 717 261 49 6 94 17 105 25 6 4 37 12 70 19 33 6 78 18 100 26 l40 14 -65
-4 c-102 -7 -171 -14 -230 -22 -30 -4 -59 -6 -64 -4 -5 1 -16 -1 -25 -5 -9 -4
-23 -9 -31 -10 -34 -5 -70 -13 -78 -18 -5 -3 -29 -8 -53 -11 -24 -3 -57 -10
-74 -15 -57 -17 -110 -29 -153 -35 l-44 -6 7 33 c8 35 28 69 60 103 28 30 172
135 184 135 6 0 11 4 11 9 0 5 24 19 53 31 28 12 79 35 112 50 33 15 67 30 75
33 8 3 0 5 -18 4 -18 -1 -34 -3 -36 -5z"/>
<path d="M7923 3163 c4 -49 13 -106 21 -128 8 -22 15 -48 16 -58 0 -26 48
-117 81 -155 29 -33 36 -52 20 -52 -14 0 -56 -78 -84 -155 -47 -133 -44 -247
9 -328 24 -36 54 -44 35 -9 -5 9 -14 51 -21 93 -10 60 -10 92 -1 145 7 38 16
73 20 79 4 5 13 28 19 51 11 38 63 116 76 115 3 -1 8 -1 11 -1 4 0 -36 65 -55
87 -29 35 -87 162 -94 206 -1 7 -5 18 -10 25 -4 7 -10 46 -13 87 -4 53 -10 76
-21 80 -13 5 -14 -7 -9 -82z"/>
<path d="M9550 3061 c0 -22 3 -41 8 -43 4 -1 28 -31 54 -64 33 -44 43 -65 36
-72 -12 -12 -47 1 -60 22 -4 6 -9 8 -12 5 -11 -10 68 -87 127 -123 31 -20 57
-43 57 -50 0 -8 5 -16 12 -18 7 -3 -2 -26 -25 -64 -20 -33 -37 -63 -37 -67 0
-5 -9 -27 -19 -50 -37 -82 -53 -123 -92 -241 -21 -65 -39 -127 -39 -137 0 -11
-4 -27 -9 -37 -17 -31 -53 -234 -66 -366 -11 -112 -10 -133 2 -142 10 -8 11
-13 3 -16 -9 -3 -9 -22 -1 -78 6 -41 15 -120 22 -175 9 -86 29 -201 59 -335 4
-19 17 -78 28 -130 11 -52 28 -117 38 -145 9 -27 18 -77 20 -110 8 -156 19
-215 40 -215 9 0 14 13 15 38 l1 37 12 -35 c10 -26 19 -36 39 -38 15 -2 27 -2
27 0 0 2 -11 37 -24 78 -13 41 -34 111 -46 155 -12 44 -30 107 -40 140 -116
388 -173 906 -125 1140 33 161 132 481 187 605 7 14 12 27 12 30 1 3 20 44 44
93 43 90 49 107 33 107 -5 0 -7 9 -4 20 4 15 0 20 -14 20 -18 0 -101 83 -142
143 -9 12 -19 27 -23 32 -16 20 -58 86 -58 91 0 7 -27 34 -34 34 -3 0 -6 -18
-6 -39z"/>
<path d="M7768 2945 c-4 -4 2 -16 13 -28 10 -11 19 -29 19 -39 0 -21 25 -24
33 -4 3 8 21 16 39 18 46 4 41 19 -12 33 -25 7 -54 16 -65 20 -11 3 -23 3 -27
0z"/>
<path d="M9024 2045 c-8 -20 64 -228 107 -308 42 -78 50 -124 56 -344 3 -120
5 -240 4 -266 0 -30 8 -70 24 -109 14 -34 25 -65 25 -70 0 -4 27 -65 61 -135
103 -217 151 -322 170 -371 7 -18 15 -23 37 -20 18 2 26 8 23 18 -18 72 -34
118 -71 195 -23 50 -46 92 -50 95 -10 7 -150 293 -150 308 0 6 -4 12 -8 12
-10 0 -16 43 -14 115 0 33 -3 121 -9 195 -5 74 -10 161 -11 193 0 31 -5 57 -9
57 -5 0 -9 8 -9 18 0 9 -12 49 -26 87 -13 39 -29 88 -35 110 -5 22 -25 73 -44
112 -19 40 -37 84 -41 98 -7 28 -22 33 -30 10z"/>
</g>
</svg>
